<svg width="195" height="34" viewBox="0 0 195 34" fill="none" xmlns="http://www.w3.org/2000/svg">
<path d="M46.1453 8.47534H49.5864V15.1008H52.0377L57.114 8.47534H61.0442L54.9839 16.2596L61.5362 25.3696H57.2848L52.2056 18.2467H49.5864V25.3696H46.1453V8.47534Z" fill="white"/>
<path d="M66.6213 8.47534H73.9868L78.5711 25.3696H74.9738L71.3706 11.6212H69.2434L65.6373 25.3696H62.0341L66.6213 8.47534Z" fill="white"/>
<path d="M81.0371 8.47521H84.4753V15.2645H86.7704C87.5541 11.1236 90.8627 8.14453 95.1229 8.14453C99.8721 8.14453 103.64 11.9845 103.64 16.9208C103.64 21.8571 99.8721 25.7001 95.1229 25.7001C93.099 25.6958 91.1438 24.9584 89.6114 23.6216C88.0791 22.2847 87.0712 20.437 86.7704 18.4133H84.4753V25.3694H81.0371V8.47521ZM95.1229 22.5513C97.907 22.5513 100.037 20.3676 100.037 16.9208C100.037 13.4741 97.907 11.2934 95.1229 11.2934C92.3387 11.2934 90.2086 13.48 90.2086 16.9238C90.2086 20.3676 92.3387 22.5513 95.1229 22.5513Z" fill="white"/>
<path d="M106.424 8.47534H109.866V14.4335C109.866 16.4205 111.012 17.5823 113.142 17.5823C114.211 17.617 115.278 17.4482 116.285 17.0848C116.631 16.9807 116.953 16.812 117.237 16.5873V8.47534H120.684V25.3696H117.237V19.5723C116.891 19.8162 116.517 20.0163 116.123 20.1681C115.065 20.563 113.943 20.754 112.815 20.7312C108.72 20.7312 106.424 18.4463 106.424 14.7731V8.47534Z" fill="white"/>
<path d="M131.815 8.14453C133.211 8.14419 134.572 8.58361 135.709 9.40169C136.209 9.74857 136.661 10.1613 137.053 10.6291H137.218V8.47521H140.659V25.3694H137.221V23.0488H137.056C136.676 23.5558 136.223 24.0027 135.712 24.3744C134.589 25.2313 133.222 25.6965 131.815 25.7001C127.395 25.7001 123.951 22.2206 123.951 16.9208C123.951 11.6211 127.392 8.14453 131.815 8.14453ZM132.469 22.5513C135.253 22.5513 137.221 20.597 137.221 16.9208C137.221 13.2447 135.253 11.2934 132.469 11.2934C129.49 11.2934 127.557 13.2477 127.557 16.9238C127.557 20.6 129.49 22.5513 132.469 22.5513Z" fill="white"/>
<path d="M144.92 8.47534H153.272C156.548 8.47534 158.351 10.2628 158.351 12.6162C158.351 14.2041 157.694 15.1008 157.04 15.631C156.655 15.9372 156.207 16.152 155.729 16.2596V16.3907C156.317 16.488 156.876 16.7148 157.367 17.055C158.186 17.6181 159.005 18.6429 159.005 20.5316C159.005 23.2127 156.843 25.3696 153.437 25.3696H144.92V8.47534ZM152.945 15.1008C154.256 15.1008 154.91 14.505 154.91 13.2776C154.91 12.2498 154.256 11.6212 152.945 11.6212H148.358V15.1008H152.945ZM153.272 22.2207C154.745 22.2207 155.567 21.3925 155.567 20.0698C155.567 18.908 154.748 18.0798 153.272 18.0798H148.358V22.2207H153.272Z" fill="white"/>
<path d="M160.643 8.47534H175.221V11.6212H169.653V25.3696H166.212V11.6212H160.643V8.47534Z" fill="white"/>
<path d="M185.377 8.14475C187.094 8.14416 188.773 8.65863 190.201 9.62309C191.63 10.5875 192.743 11.9586 193.401 13.563C194.058 15.1673 194.23 16.9328 193.895 18.6361C193.56 20.3394 192.733 21.9039 191.519 23.1319C190.305 24.3599 188.757 25.1961 187.073 25.5348C185.388 25.8734 183.642 25.6993 182.056 25.0345C180.469 24.3696 179.113 23.2439 178.159 21.7997C177.205 20.3555 176.697 18.6577 176.697 16.9211C176.682 15.7644 176.897 14.6166 177.328 13.5451C177.759 12.4736 178.398 11.5002 179.207 10.6823C180.016 9.86436 180.978 9.21845 182.038 8.78265C183.098 8.34684 184.233 8.12995 185.377 8.14475ZM185.377 22.5515C188.358 22.5515 190.456 20.3678 190.456 16.9211C190.456 13.4743 188.358 11.2936 185.377 11.2936C182.395 11.2936 180.3 13.4802 180.3 16.924C180.3 20.3678 182.395 22.5515 185.377 22.5515Z" fill="white"/>
<path d="M33.5621 14.1682L30.2594 15.2526L12.6588 21.032C11.8543 21.2958 10.9792 21.226 10.2257 20.8377C9.47217 20.4495 8.90189 19.7747 8.64017 18.9615L8.59009 18.8066L11.6217 17.8116L30.0119 11.773L33.2527 10.7065C33.402 11.8565 33.5051 13.0103 33.5621 14.1682Z" fill="white"/>
<path d="M33.6154 18.491C33.583 19.7034 33.5034 20.9189 33.3826 22.1284C33.2707 23.2585 33.1214 24.3835 32.9348 25.5037L32.8906 25.7777C32.551 27.6214 31.6691 29.3186 30.3603 30.6473C29.0514 31.9761 27.3765 32.8746 25.5546 33.2254H25.5398L25.2099 33.282C19.6508 34.2234 13.9756 34.2234 8.41655 33.282L8.08658 33.2254C6.26445 32.875 4.58936 31.9766 3.28045 30.6478C1.97155 29.319 1.08979 27.6216 0.75055 25.7777C0.732872 25.6854 0.718143 25.596 0.703412 25.5037C-0.233494 19.8661 -0.233494 14.11 0.703412 8.47239C0.703412 8.38004 0.732872 8.28769 0.75055 8.19533C1.09309 6.34557 1.9815 4.64403 3.29885 3.31465C4.61619 1.98527 6.30074 1.09036 8.13077 0.747687C13.7882 -0.217097 19.5637 -0.237223 25.2276 0.688106L25.5015 0.732793C27.0482 1.0221 28.4961 1.70626 29.7078 2.72034C30.9196 3.73442 31.8549 5.04478 32.4251 6.52706L29.2521 7.56973L12.6591 13.0184C12.2608 13.1495 11.8408 13.1999 11.4232 13.1667C11.0057 13.1336 10.5986 13.0176 10.2254 12.8253C9.85222 12.633 9.52015 12.3682 9.24819 12.0461C8.97623 11.724 8.76972 11.3508 8.64046 10.948L8.59038 10.7931L11.622 9.80403L26.9216 4.77835C26.2267 4.3754 25.4698 4.09343 24.6825 3.94422C22.0822 3.50177 19.4501 3.27856 16.8132 3.27691C14.098 3.29103 11.3884 3.52815 8.71117 3.98592C7.54835 4.21326 6.48027 4.78964 5.64623 5.6399C4.81218 6.49015 4.25089 7.57481 4.03556 8.75242L3.99431 8.99074C3.1193 14.2896 3.1193 19.6984 3.99431 24.9972L4.02672 25.1938V25.2356C4.24087 26.4107 4.79955 27.4937 5.6302 28.3437C6.46084 29.1937 7.52507 29.7715 8.68466 30.0021L8.90267 30.0408H8.9616C11.5531 30.4822 14.1764 30.7045 16.8044 30.7051C19.4333 30.7043 22.0576 30.4821 24.6501 30.0408H24.709L24.927 30.0021C26.0866 29.7715 27.1509 29.1937 27.9815 28.3437C28.8121 27.4937 29.3708 26.4107 29.585 25.2356L29.6233 24.9972C29.7176 24.4253 29.803 23.8563 29.8766 23.2843L17.0371 27.4996C16.6379 27.63 16.2171 27.6794 15.7989 27.6451C15.3807 27.6108 14.9734 27.4934 14.6001 27.2997C14.2268 27.106 13.895 26.8398 13.6236 26.5163C13.3522 26.1927 13.1466 25.8183 13.0185 25.4143L12.9684 25.2594L16.0001 24.2644L30.2184 19.5902L33.6154 18.491Z" fill="white"/>
</svg>
