<svg width="163" height="29" viewBox="0 0 163 29" fill="none" xmlns="http://www.w3.org/2000/svg">
<path d="M39.2881 7.72949H42.1557V13.2507H44.1984L48.4287 7.72949H51.7039L46.6536 14.2164L52.1139 21.808H48.5711L44.3384 15.8723H42.1557V21.808H39.2881V7.72949Z" fill="#313133"/>
<path d="M56.351 7.72949H62.4889L66.3092 21.808H63.3114L60.3087 10.3511H58.5361L55.531 21.808H52.5283L56.351 7.72949Z" fill="#313133"/>
<path d="M68.3643 7.72942H71.2294V13.3871H73.142C73.7951 9.93641 76.5522 7.45386 80.1024 7.45386C84.0601 7.45386 87.2003 10.6539 87.2003 14.7674C87.2003 18.881 84.0601 22.0835 80.1024 22.0835C78.4159 22.0799 76.7865 21.4654 75.5095 20.3514C74.2326 19.2374 73.3927 17.6976 73.142 16.0112H71.2294V21.808H68.3643V7.72942ZM80.1024 19.4595C82.4225 19.4595 84.1976 17.6398 84.1976 14.7674C84.1976 11.8951 82.4225 10.0779 80.1024 10.0779C77.7823 10.0779 76.0072 11.9001 76.0072 14.7699C76.0072 17.6398 77.7823 19.4595 80.1024 19.4595Z" fill="#313133"/>
<path d="M89.5205 7.72949H92.3881V12.6946C92.3881 14.3505 93.3432 15.3186 95.1183 15.3186C96.0095 15.3475 96.8981 15.2069 97.7379 14.9041C98.0256 14.8173 98.2946 14.6767 98.5309 14.4895V7.72949H101.403V21.808H98.5309V16.977C98.2428 17.1802 97.9311 17.3469 97.6029 17.4735C96.7209 17.8026 95.7857 17.9617 94.8458 17.9427C91.4331 17.9427 89.5205 16.0386 89.5205 12.9776V7.72949Z" fill="#313133"/>
<path d="M110.679 7.45386C111.842 7.45358 112.977 7.81975 113.925 8.50149C114.341 8.79056 114.718 9.13453 115.044 9.5243H115.182V7.72942H118.049V21.808H115.184V19.874H115.047C114.73 20.2966 114.353 20.669 113.927 20.9788C112.991 21.6928 111.851 22.0805 110.679 22.0835C106.996 22.0835 104.126 19.1839 104.126 14.7674C104.126 10.351 106.994 7.45386 110.679 7.45386ZM111.224 19.4595C113.544 19.4595 115.184 17.8309 115.184 14.7674C115.184 11.704 113.544 10.0779 111.224 10.0779C108.742 10.0779 107.131 11.7065 107.131 14.7699C107.131 17.8334 108.742 19.4595 111.224 19.4595Z" fill="#313133"/>
<path d="M121.6 7.72949H128.56C131.29 7.72949 132.793 9.21902 132.793 11.1802C132.793 12.5034 132.245 13.2507 131.7 13.6926C131.379 13.9477 131.006 14.1267 130.608 14.2164V14.3256C131.097 14.4067 131.563 14.5957 131.973 14.8792C132.655 15.3484 133.338 16.2024 133.338 17.7764C133.338 20.0107 131.536 21.808 128.697 21.808H121.6V7.72949ZM128.287 13.2507C129.38 13.2507 129.925 12.7542 129.925 11.7314C129.925 10.8749 129.38 10.3511 128.287 10.3511H124.465V13.2507H128.287ZM128.56 19.184C129.788 19.184 130.473 18.4938 130.473 17.3916C130.473 16.4234 129.79 15.7332 128.56 15.7332H124.465V19.184H128.56Z" fill="#313133"/>
<path d="M134.703 7.72949H146.851V10.3511H142.211V21.808H139.343V10.3511H134.703V7.72949Z" fill="#313133"/>
<path d="M155.314 7.45396C156.745 7.45347 158.144 7.8822 159.334 8.68591C160.525 9.48962 161.452 10.6322 162 11.9691C162.548 13.3061 162.692 14.7773 162.413 16.1967C162.133 17.6161 161.444 18.92 160.432 19.9433C159.42 20.9666 158.131 21.6634 156.727 21.9457C155.323 22.2279 153.868 22.0828 152.546 21.5287C151.224 20.9747 150.094 20.0366 149.299 18.8331C148.504 17.6296 148.08 16.2147 148.081 14.7676C148.068 13.8037 148.247 12.8471 148.606 11.9542C148.966 11.0613 149.498 10.2502 150.172 9.56857C150.846 8.88696 151.648 8.34871 152.531 7.98554C153.414 7.62237 154.36 7.44162 155.314 7.45396ZM155.314 19.4596C157.798 19.4596 159.546 17.6399 159.546 14.7676C159.546 11.8952 157.798 10.078 155.314 10.078C152.829 10.078 151.083 11.9002 151.083 14.77C151.083 17.6399 152.829 19.4596 155.314 19.4596Z" fill="#313133"/>
<path d="M28.8022 12.4736L26.0499 13.3772L11.3828 18.1934C10.7124 18.4133 9.98313 18.355 9.35519 18.0315C8.72726 17.708 8.25202 17.1456 8.03392 16.468L7.99219 16.3389L10.5186 15.5097L25.8437 10.4776L28.5444 9.58887C28.6688 10.5471 28.7547 11.5087 28.8022 12.4736Z" fill="#313133"/>
<path d="M28.8462 16.0759C28.8192 17.0863 28.7529 18.0992 28.6522 19.1071C28.5589 20.0488 28.4345 20.9864 28.279 21.9198L28.2422 22.1482C27.9592 23.6846 27.2243 25.0989 26.1336 26.2062C25.0429 27.3135 23.6472 28.0622 22.1289 28.3546H22.1166L21.8416 28.4017C17.209 29.1862 12.4797 29.1862 7.84717 28.4017L7.57219 28.3546C6.05375 28.0626 4.65784 27.3139 3.56709 26.2066C2.47633 25.0992 1.74154 23.6847 1.45883 22.1482C1.4441 22.0712 1.43183 21.9968 1.41955 21.9198C0.638796 17.2218 0.638796 12.425 1.41955 7.72707C1.41955 7.65011 1.4441 7.57315 1.45883 7.49619C1.74429 5.95473 2.48463 4.53678 3.58241 3.42896C4.6802 2.32114 6.08399 1.57538 7.60902 1.28982C12.3235 0.485834 17.1365 0.469062 21.8563 1.24017L22.0847 1.27741C23.3736 1.5185 24.5801 2.08863 25.5899 2.9337C26.5997 3.77876 27.3791 4.87073 27.8543 6.10597L25.2101 6.97486L11.3826 11.5154C11.0507 11.6247 10.7007 11.6667 10.3527 11.639C10.0048 11.6114 9.66558 11.5147 9.35457 11.3545C9.04356 11.1943 8.76683 10.9736 8.5402 10.7052C8.31357 10.4368 8.14148 10.1258 8.03376 9.79007L7.99202 9.66098L10.5184 8.83677L23.2681 4.64871C22.689 4.31292 22.0582 4.07794 21.4021 3.9536C19.2352 3.58489 17.0418 3.39888 14.8444 3.3975C12.5817 3.40927 10.3237 3.60687 8.09269 3.98835C7.12367 4.1778 6.2336 4.65812 5.53856 5.36666C4.84353 6.07521 4.37579 6.97909 4.19634 7.96043L4.16197 8.15903C3.43279 12.5747 3.43279 17.0821 4.16197 21.4978L4.18897 21.6616V21.6964C4.36743 22.6757 4.833 23.5781 5.52521 24.2865C6.21741 24.9948 7.10427 25.4763 8.07059 25.6685L8.25227 25.7007H8.30137C10.4609 26.0686 12.647 26.2538 14.837 26.2543C17.0278 26.2537 19.2147 26.0685 21.3751 25.7007H21.4242L21.6059 25.6685C22.5722 25.4763 23.4591 24.9948 24.1513 24.2865C24.8435 23.5781 25.3091 22.6757 25.4875 21.6964L25.5194 21.4978C25.598 21.0211 25.6692 20.547 25.7306 20.0703L15.031 23.5831C14.6983 23.6917 14.3476 23.7329 13.9991 23.7043C13.6507 23.6757 13.3112 23.5779 13.0001 23.4165C12.6891 23.2551 12.4125 23.0333 12.1864 22.7636C11.9602 22.494 11.7889 22.182 11.6821 21.8453L11.6404 21.7162L14.1668 20.8871L26.0154 16.9919L28.8462 16.0759Z" fill="#313133"/>
</svg>
