<?xml version="1.0" encoding="utf-8"?>
<!-- Generator: Adobe Illustrator 21.1.0, SVG Export Plug-In . SVG Version: 6.00 Build 0)  -->
<svg version="1.1" id="Layer_1" xmlns="http://www.w3.org/2000/svg" xmlns:xlink="http://www.w3.org/1999/xlink" x="0px" y="0px"
	 viewBox="0 0 172 29" style="enable-background:new 0 0 172 29;" xml:space="preserve">
<style type="text/css">
	.st0{fill:#0B45F5;}
	.st1{fill:#black;}
	.st2{enable-background:new    ;}
</style>
<g>
	<rect x="0.8" y="1" class="st0" width="27" height="27"/>
	<g>
		<g>
			<path class="st1" d="M87.1,18.2h-2.6v6.9h-2.3v-8.8h2.3v1.2c0.1-0.3,0.3-0.6,0.5-0.7c0.2-0.2,0.4-0.4,0.7-0.4
				c0.1,0,0.3-0.1,0.4-0.1c0.2,0,0.3,0,0.5,0c0.2,0,0.4,0,0.6,0.1V18.2L87.1,18.2z"/>
		</g>
		<g>
			<path class="st1" d="M42.5,25h-6.3c-0.7,0-1.3-0.2-1.8-0.7c-0.5-0.5-0.7-1.1-0.7-1.8c0-0.7,0.2-1.4,0.7-1.9
				c0.5-0.5,1-0.7,1.7-0.7h4.1v-0.5c0-0.2,0-0.3-0.1-0.4c0-0.1-0.1-0.2-0.2-0.4c-0.2-0.2-0.3-0.3-0.5-0.4c-0.2,0-0.4-0.1-0.7-0.1
				h-4.4v-1.9h4.5c0.8,0,1.5,0.1,1.8,0.2c0.4,0.1,0.7,0.4,1.1,0.6c0.4,0.4,0.6,0.8,0.7,1.2c0.1,0.4,0.2,1,0.2,1.7L42.5,25L42.5,25z
				 M40.1,23.1v-1.7h-3c-0.3,0-0.5,0.1-0.7,0.2c-0.2,0.2-0.3,0.4-0.3,0.7c0,0.2,0.1,0.4,0.3,0.6c0.2,0.2,0.4,0.2,0.7,0.2L40.1,23.1
				L40.1,23.1z M52,25h-4.5c-0.8,0-1.4,0-1.7-0.1c-0.6-0.1-1-0.4-1.3-0.9c-0.4-0.5-0.6-1.1-0.6-1.8v-6h2.4V22c0,0.3,0.1,0.5,0.4,0.7
				c0.2,0.2,0.5,0.3,0.8,0.3h2.3v-6.9H52L52,25L52,25z M59.3,18H57v4c0,0.4,0.1,0.7,0.4,0.9c0.3,0.2,0.7,0.4,1.1,0.4h0.7V25H57
				c-0.7,0-1.2-0.2-1.7-0.7c-0.3-0.3-0.4-0.6-0.5-0.9s-0.1-0.7-0.1-1.2V18h-1.5v-1.8h1.5v-3.1H57v3.1h2.3V18z M70.3,20.6
				c0,1.5-0.5,2.7-1.5,3.5c-0.9,0.7-2.1,1.1-3.7,1.1s-2.7-0.4-3.6-1c-1-0.8-1.5-2-1.5-3.7c0-1.4,0.5-2.5,1.6-3.3
				c0.9-0.7,2.1-1.1,3.5-1.1c1.5,0,2.8,0.4,3.7,1.1C69.8,18,70.3,19.2,70.3,20.6L70.3,20.6z M67.7,20.5c0-0.7-0.2-1.3-0.7-1.8
				C66.6,18.3,66,18,65.2,18c-0.7,0-1.3,0.2-1.7,0.7c-0.5,0.5-0.7,1.1-0.7,1.8c0,0.9,0.2,1.5,0.7,2c0.5,0.5,1.1,0.7,1.8,0.7
				c0.8,0,1.5-0.3,1.8-0.8C67.5,22.2,67.7,21.5,67.7,20.5L67.7,20.5z"/>
		</g>
		<g>
			<path class="st1" d="M80.5,25h-5.5c-1.1,0-1.9-0.5-2.6-1.4c-0.6-0.9-1-1.9-1-3.1c0-1.1,0.4-2.1,1.1-3c0.7-0.9,1.6-1.3,2.7-1.3h3
				v-3.1h2.3V25L80.5,25z M78.1,23v-5h-2.2c-0.6,0-1.1,0.2-1.5,0.7c-0.4,0.5-0.6,1.1-0.6,1.7c0,0.7,0.2,1.3,0.6,1.8
				c0.4,0.5,0.9,0.8,1.5,0.8C75.8,23,78.1,23,78.1,23z M90.7,15.2h-2.3v-2.1h2.3V15.2z M90.7,25h-2.3v-8.8h2.3V25z"/>
		</g>
		<g>
			<path class="st1" d="M99.4,16.2l-2.4,6.1l-2.3-6.1h-2.8l3.6,8.8h2.9l3.8-8.8L99.4,16.2z M112.2,20c0,0.1,0,0.2,0,0.3
				C112.2,20.2,112.2,20.1,112.2,20z M112.2,20.6L112.2,20.6c0,0.2,0,0.3,0,0.5C112.2,20.9,112.2,20.7,112.2,20.6L112.2,20.6z
				 M102.1,20C102.1,20,102.1,20,102.1,20C102.1,20,102.1,20,102.1,20z M102,20.5L102,20.5c0-0.1,0-0.2,0-0.2
				C102,20.4,102,20.4,102,20.5z"/>
		</g>
		<g>
			<path class="st1" d="M112.2,20.3c0-0.1,0-0.2,0-0.3c0,0,0,0,0-0.1c-0.1-1.1-0.6-2-1.3-2.6c-0.9-0.7-2.1-1.1-3.7-1.1c0,0,0,0,0,0
				c0,0,0,0,0,0c-1.5,0-2.8,0.4-3.7,1.1c-0.8,0.6-1.2,1.5-1.3,2.6c0,0,0,0,0,0.1c0,0.1,0,0.2,0,0.3c0,0.1,0,0.2,0,0.2l0,0
				c0,0.2,0,0.3,0,0.5c0.1,1.3,0.6,2.2,1.5,2.9c0.9,0.7,2,1,3.6,1c0,0,0,0,0,0c0,0,0,0,0,0c1.5,0,2.6-0.3,3.4-0.9l-1.3-1.3
				c-1.1,0.5-2,0.4-2,0.4l0,0h0c-0.7,0-1.3-0.3-1.8-0.7c-0.3-0.3-0.5-0.6-0.6-1h7.4c0-0.2,0-0.3,0-0.4s0-0.3,0-0.5l0,0
				C112.2,20.4,112.2,20.4,112.2,20.3L112.2,20.3z M104.7,19.8c0.1-0.4,0.3-0.7,0.6-1c0.2-0.2,0.4-0.4,0.7-0.5
				c0.3-0.2,0.7-0.2,1.1-0.2h0c0.4,0,0.7,0.1,1,0.2c0.3,0.1,0.5,0.3,0.7,0.5c0.3,0.3,0.5,0.6,0.6,1H104.7L104.7,19.8z"/>
		</g>
		<g class="st2">
			<path class="st1" d="M114,28h-1.1l5.7-16.1h1.1L114,28z"/>
			<path class="st1" d="M123.3,16.1c0.6,0,1,0.1,1.4,0.2c0.4,0.2,0.7,0.4,1,0.7s0.4,0.6,0.5,1c0.1,0.4,0.2,0.8,0.2,1.3v5.4
				c-0.1,0-0.3,0.1-0.5,0.1c-0.2,0-0.5,0.1-0.7,0.1c-0.3,0-0.6,0.1-0.9,0.1c-0.3,0-0.7,0-1,0c-0.5,0-0.9,0-1.3-0.1
				c-0.4-0.1-0.7-0.3-1-0.5c-0.3-0.2-0.5-0.5-0.7-0.8c-0.2-0.3-0.2-0.8-0.2-1.2c0-0.5,0.1-0.9,0.3-1.2c0.2-0.3,0.4-0.6,0.7-0.8
				c0.3-0.2,0.7-0.4,1.1-0.5c0.4-0.1,0.9-0.1,1.4-0.1c0.2,0,0.3,0,0.5,0c0.2,0,0.3,0,0.5,0.1c0.2,0,0.3,0.1,0.4,0.1
				c0.1,0,0.2,0.1,0.2,0.1v-0.5c0-0.3,0-0.6-0.1-0.9c0-0.3-0.1-0.5-0.3-0.8c-0.1-0.2-0.4-0.4-0.6-0.5c-0.3-0.1-0.6-0.2-1.1-0.2
				c-0.6,0-1.1,0-1.4,0.1c-0.3,0.1-0.5,0.2-0.7,0.2l-0.1-0.9c0.2-0.1,0.5-0.2,0.9-0.2C122.3,16.1,122.8,16.1,123.3,16.1z
				 M123.4,24.1c0.4,0,0.8,0,1.1,0c0.3,0,0.6-0.1,0.8-0.1v-3c-0.1-0.1-0.3-0.1-0.6-0.2c-0.3-0.1-0.6-0.1-1.1-0.1
				c-0.3,0-0.5,0-0.8,0.1c-0.3,0-0.6,0.1-0.8,0.2c-0.2,0.1-0.4,0.3-0.6,0.5c-0.2,0.2-0.2,0.5-0.2,0.9c0,0.3,0.1,0.6,0.2,0.8
				c0.1,0.2,0.3,0.4,0.4,0.5c0.2,0.1,0.4,0.2,0.7,0.3C122.8,24.1,123.1,24.1,123.4,24.1z"/>
			<path class="st1" d="M134.8,23.9c-0.1,0.1-0.2,0.1-0.3,0.2c-0.1,0.1-0.3,0.1-0.5,0.2c-0.2,0.1-0.4,0.1-0.7,0.2
				c-0.2,0-0.5,0.1-0.8,0.1c-0.5,0-1-0.1-1.4-0.2c-0.5-0.2-0.9-0.4-1.2-0.7c-0.3-0.3-0.6-0.8-0.8-1.3c-0.2-0.5-0.3-1.2-0.3-1.9
				c0-0.6,0.1-1.2,0.3-1.7c0.2-0.5,0.5-1,0.8-1.4c0.3-0.4,0.8-0.7,1.3-0.9c0.5-0.2,1.1-0.3,1.7-0.3c0.8,0,1.4,0.1,1.9,0.2
				c0.5,0.1,0.9,0.2,1.2,0.3v7.8c0,1.3-0.3,2.2-1,2.8c-0.7,0.5-1.7,0.8-3,0.8c-0.6,0-1.1,0-1.5-0.1c-0.4-0.1-0.8-0.2-1.2-0.3l0.2-1
				c0.3,0.1,0.6,0.2,1.1,0.3c0.5,0.1,0.9,0.1,1.4,0.1c1,0,1.8-0.2,2.2-0.6c0.5-0.4,0.7-1.1,0.7-2V23.9z M134.8,17.3
				c-0.2-0.1-0.4-0.1-0.7-0.2c-0.3,0-0.7-0.1-1.3-0.1c-0.5,0-0.9,0.1-1.2,0.2c-0.4,0.2-0.7,0.4-0.9,0.7c-0.3,0.3-0.4,0.6-0.6,1
				c-0.1,0.4-0.2,0.9-0.2,1.3c0,0.6,0.1,1.1,0.2,1.5c0.2,0.4,0.4,0.7,0.6,1c0.2,0.3,0.5,0.4,0.9,0.6c0.3,0.1,0.6,0.2,1,0.2
				c0.5,0,0.9-0.1,1.3-0.2c0.4-0.1,0.7-0.3,0.9-0.5V17.3z"/>
			<path class="st1" d="M138.2,20.6c0-0.8,0.1-1.4,0.3-2c0.2-0.6,0.5-1,0.8-1.4c0.3-0.4,0.7-0.7,1.2-0.8c0.4-0.2,0.9-0.3,1.4-0.3
				c1.1,0,1.9,0.3,2.5,1c0.6,0.7,0.9,1.7,0.9,3.2c0,0.1,0,0.2,0,0.3c0,0.1,0,0.2,0,0.2h-6c0,1.1,0.3,1.9,0.8,2.4
				c0.5,0.6,1.3,0.8,2.3,0.8c0.6,0,1.1-0.1,1.4-0.2c0.3-0.1,0.6-0.2,0.7-0.3l0.2,0.9c-0.2,0.1-0.4,0.2-0.9,0.3
				c-0.4,0.1-0.9,0.2-1.5,0.2c-0.8,0-1.4-0.1-1.9-0.3c-0.5-0.2-1-0.5-1.3-0.9c-0.3-0.4-0.6-0.9-0.7-1.4
				C138.3,21.8,138.2,21.2,138.2,20.6z M144.3,19.9c0-0.9-0.2-1.6-0.6-2.1c-0.4-0.5-1-0.7-1.7-0.7c-0.4,0-0.7,0.1-1,0.2
				c-0.3,0.2-0.6,0.4-0.8,0.6s-0.4,0.6-0.5,0.9c-0.1,0.3-0.2,0.7-0.2,1.1H144.3z"/>
			<path class="st1" d="M147.8,16.6c0.3-0.1,0.8-0.2,1.3-0.3c0.5-0.1,1.2-0.2,2-0.2c0.7,0,1.2,0.1,1.6,0.3c0.4,0.2,0.8,0.5,1,0.8
				c0.3,0.3,0.4,0.8,0.6,1.3c0.1,0.5,0.2,1,0.2,1.6v4.8h-1.1v-4.5c0-0.6,0-1.1-0.1-1.5c-0.1-0.4-0.2-0.8-0.4-1
				c-0.2-0.3-0.4-0.5-0.8-0.6c-0.3-0.1-0.7-0.2-1.2-0.2c-0.5,0-1,0-1.3,0.1c-0.4,0.1-0.6,0.1-0.7,0.1v7.5h-1.1V16.6z"/>
			<path class="st1" d="M160.8,25.1c-0.7,0-1.3-0.1-1.8-0.3c-0.5-0.2-0.9-0.5-1.3-0.9c-0.3-0.4-0.6-0.9-0.8-1.4
				c-0.2-0.5-0.3-1.2-0.3-1.8c0-0.7,0.1-1.3,0.3-1.8c0.2-0.6,0.4-1,0.8-1.4c0.3-0.4,0.8-0.7,1.2-0.9c0.5-0.2,1-0.3,1.6-0.3
				c0.5,0,0.9,0,1.3,0.1c0.4,0.1,0.7,0.2,0.9,0.3l-0.3,0.9c-0.2-0.1-0.5-0.2-0.7-0.3c-0.3-0.1-0.6-0.1-1.1-0.1c-1,0-1.7,0.3-2.2,0.9
				c-0.5,0.6-0.7,1.5-0.7,2.6c0,0.5,0.1,1,0.2,1.4c0.1,0.4,0.3,0.8,0.5,1.1c0.2,0.3,0.6,0.5,1,0.7s0.9,0.3,1.4,0.3
				c0.5,0,0.9-0.1,1.2-0.2c0.3-0.1,0.5-0.2,0.7-0.3l0.2,0.9c-0.2,0.1-0.5,0.2-0.9,0.3C161.7,25,161.3,25.1,160.8,25.1z"/>
			<path class="st1" d="M167.4,25.1c-0.4-0.7-0.7-1.4-1.1-2.1c-0.3-0.7-0.7-1.5-1-2.2c-0.3-0.7-0.6-1.5-0.8-2.2
				c-0.2-0.7-0.5-1.5-0.6-2.2h1.1c0.1,0.5,0.3,1.1,0.5,1.7c0.2,0.6,0.4,1.2,0.6,1.9c0.2,0.7,0.5,1.3,0.8,2c0.3,0.7,0.6,1.4,0.9,2
				c0.2-0.7,0.5-1.3,0.7-1.9c0.2-0.6,0.4-1.2,0.5-1.8c0.2-0.6,0.3-1.2,0.5-1.9c0.2-0.6,0.3-1.3,0.5-2.1h1.1
				c-0.4,1.6-0.8,3.2-1.2,4.7c-0.4,1.5-0.9,2.9-1.5,4.2c-0.2,0.5-0.4,0.9-0.7,1.3c-0.2,0.4-0.5,0.7-0.7,0.9c-0.3,0.2-0.6,0.4-1,0.5
				c-0.4,0.1-0.8,0.2-1.3,0.2c-0.3,0-0.5,0-0.8-0.1c-0.2-0.1-0.4-0.1-0.4-0.1l0.2-0.9c0,0,0.2,0.1,0.4,0.1c0.2,0.1,0.4,0.1,0.6,0.1
				c0.3,0,0.6,0,0.8-0.1c0.3-0.1,0.5-0.2,0.7-0.3c0.2-0.2,0.4-0.4,0.5-0.6C167.1,25.8,167.3,25.4,167.4,25.1z"/>
		</g>
	</g>
	<g>
		<path class="st1" d="M33.6,4.2c0.2-0.1,0.5-0.1,0.7-0.1c0.3,0,0.5,0,0.8,0c0.3,0,0.6,0,0.8,0.1s0.5,0.2,0.8,0.3
			C37,4.6,37.1,4.8,37.3,5s0.2,0.6,0.2,1c0,0.4-0.1,0.7-0.2,1c-0.1,0.3-0.3,0.5-0.5,0.6S36.3,7.9,36,7.9C35.7,8,35.4,8,35.1,8
			c0,0-0.1,0-0.1,0c-0.1,0-0.1,0-0.2,0c-0.1,0-0.1,0-0.2,0c-0.1,0-0.1,0-0.2,0v2.4h-0.7V4.2z M35.1,4.7c-0.2,0-0.3,0-0.5,0
			s-0.3,0-0.3,0v2.6c0,0,0.1,0,0.1,0c0.1,0,0.1,0,0.2,0c0.1,0,0.1,0,0.2,0s0.1,0,0.1,0c0.2,0,0.4,0,0.6-0.1c0.2,0,0.4-0.1,0.5-0.2
			c0.2-0.1,0.3-0.2,0.4-0.4c0.1-0.2,0.1-0.4,0.1-0.7c0-0.2,0-0.5-0.1-0.6c-0.1-0.2-0.2-0.3-0.4-0.4c-0.2-0.1-0.3-0.2-0.5-0.2
			S35.3,4.7,35.1,4.7z"/>
		<path class="st1" d="M38.2,6.2C38.4,6.1,38.7,6,39,5.9c0.3-0.1,0.6-0.1,0.9-0.1c0.3,0,0.6,0,0.8,0.1s0.3,0.2,0.4,0.3
			c0.1,0.1,0.2,0.3,0.2,0.4c0,0.2,0,0.3,0,0.5c0,0.4,0,0.7,0,1.1c0,0.3,0,0.7,0,1c0,0.2,0,0.4,0,0.6c0,0.2,0.1,0.4,0.1,0.5h-0.5
			l-0.2-0.6h0c-0.1,0.1-0.1,0.2-0.2,0.2c-0.1,0.1-0.2,0.2-0.3,0.2c-0.1,0.1-0.2,0.1-0.4,0.2c-0.1,0-0.3,0.1-0.5,0.1
			c-0.2,0-0.4,0-0.5-0.1s-0.3-0.1-0.4-0.3S38.1,9.9,38,9.7c-0.1-0.2-0.1-0.3-0.1-0.5c0-0.3,0.1-0.5,0.2-0.7c0.1-0.2,0.3-0.3,0.5-0.4
			c0.2-0.1,0.4-0.2,0.7-0.2s0.6-0.1,0.9-0.1c0.1,0,0.2,0,0.2,0c0.1,0,0.2,0,0.2,0c0-0.2,0-0.3,0-0.5c0-0.3-0.1-0.6-0.2-0.7
			c-0.1-0.1-0.4-0.2-0.7-0.2c-0.1,0-0.2,0-0.3,0c-0.1,0-0.2,0-0.4,0.1s-0.2,0.1-0.4,0.1c-0.1,0-0.2,0.1-0.3,0.1L38.2,6.2z M39.4,9.8
			c0.2,0,0.3,0,0.5-0.1c0.1,0,0.2-0.1,0.3-0.2s0.2-0.1,0.2-0.2s0.1-0.2,0.1-0.2V8.4c-0.1,0-0.2,0-0.3,0s-0.2,0-0.3,0
			c-0.2,0-0.4,0-0.5,0c-0.2,0-0.3,0.1-0.5,0.1c-0.1,0.1-0.2,0.1-0.3,0.2c-0.1,0.1-0.1,0.2-0.1,0.4c0,0.2,0.1,0.4,0.2,0.5
			C39,9.8,39.2,9.8,39.4,9.8z"/>
		<path class="st1" d="M43.1,8.4V7.8h0.6c0.1,0,0.2,0,0.3-0.1c0.1,0,0.2-0.1,0.3-0.1s0.2-0.1,0.2-0.2c0.1-0.1,0.1-0.2,0.1-0.3
			c0-0.2-0.1-0.4-0.2-0.5c-0.2-0.1-0.4-0.1-0.7-0.1c-0.2,0-0.4,0-0.6,0.1s-0.3,0.1-0.5,0.2l-0.2-0.5C42.5,6.1,42.8,6,43,6
			c0.2-0.1,0.5-0.1,0.9-0.1c1,0,1.5,0.4,1.5,1.1c0,0.2-0.1,0.4-0.2,0.6C45,7.8,44.8,7.9,44.6,8v0c0.4,0.1,0.6,0.2,0.7,0.4
			s0.2,0.4,0.2,0.7c0,0.2,0,0.4-0.1,0.5c-0.1,0.2-0.2,0.3-0.4,0.4c-0.2,0.1-0.4,0.2-0.6,0.3c-0.2,0.1-0.5,0.1-0.8,0.1
			c-0.3,0-0.6,0-0.8-0.1c-0.2-0.1-0.4-0.1-0.5-0.2l0.2-0.6c0.1,0.1,0.3,0.1,0.5,0.2s0.4,0.1,0.6,0.1c0.4,0,0.6-0.1,0.8-0.2
			s0.3-0.3,0.3-0.6c0-0.2-0.1-0.4-0.3-0.5c-0.2-0.1-0.5-0.2-0.9-0.2H43.1z"/>
		<path class="st1" d="M46.7,5.9h0.5l0.1,0.5h0c0.1-0.2,0.3-0.4,0.5-0.5c0.2-0.1,0.5-0.2,0.8-0.2c0.6,0,1,0.2,1.3,0.5
			s0.4,0.9,0.4,1.7c0,0.4,0,0.7-0.1,1c-0.1,0.3-0.2,0.6-0.4,0.8c-0.2,0.2-0.4,0.4-0.7,0.5s-0.5,0.2-0.9,0.2c-0.2,0-0.4,0-0.5,0
			c-0.1,0-0.3-0.1-0.4-0.1v1.9h-0.7V5.9z M48.5,6.4c-0.3,0-0.5,0.1-0.7,0.2c-0.2,0.2-0.3,0.4-0.4,0.7v2.2c0.1,0.1,0.2,0.1,0.4,0.2
			c0.1,0,0.3,0.1,0.5,0.1c0.4,0,0.7-0.2,1-0.5c0.2-0.3,0.4-0.8,0.4-1.4c0-0.2,0-0.5-0.1-0.7c0-0.2-0.1-0.4-0.2-0.5
			c-0.1-0.1-0.2-0.2-0.4-0.3C48.9,6.5,48.7,6.4,48.5,6.4z"/>
		<path class="st1" d="M51.5,6.2C51.7,6.1,52,6,52.3,5.9c0.3-0.1,0.6-0.1,0.9-0.1c0.3,0,0.6,0,0.8,0.1s0.3,0.2,0.4,0.3
			c0.1,0.1,0.2,0.3,0.2,0.4c0,0.2,0,0.3,0,0.5c0,0.4,0,0.7,0,1.1c0,0.3,0,0.7,0,1c0,0.2,0,0.4,0,0.6c0,0.2,0.1,0.4,0.1,0.5h-0.5
			L54,9.8h0c-0.1,0.1-0.1,0.2-0.2,0.2c-0.1,0.1-0.2,0.2-0.3,0.2c-0.1,0.1-0.2,0.1-0.4,0.2c-0.1,0-0.3,0.1-0.5,0.1
			c-0.2,0-0.4,0-0.5-0.1s-0.3-0.1-0.4-0.3s-0.2-0.2-0.3-0.4c-0.1-0.2-0.1-0.3-0.1-0.5c0-0.3,0.1-0.5,0.2-0.7
			c0.1-0.2,0.3-0.3,0.5-0.4C52,8,52.2,7.9,52.5,7.9s0.6-0.1,0.9-0.1c0.1,0,0.2,0,0.2,0c0.1,0,0.2,0,0.2,0c0-0.2,0-0.3,0-0.5
			c0-0.3-0.1-0.6-0.2-0.7c-0.1-0.1-0.4-0.2-0.7-0.2c-0.1,0-0.2,0-0.3,0c-0.1,0-0.2,0-0.4,0.1S52.1,6.6,52,6.7
			c-0.1,0-0.2,0.1-0.3,0.1L51.5,6.2z M52.7,9.8c0.2,0,0.3,0,0.5-0.1c0.1,0,0.2-0.1,0.3-0.2s0.2-0.1,0.2-0.2s0.1-0.2,0.1-0.2V8.4
			c-0.1,0-0.2,0-0.3,0s-0.2,0-0.3,0c-0.2,0-0.4,0-0.5,0c-0.2,0-0.3,0.1-0.5,0.1c-0.1,0.1-0.2,0.1-0.3,0.2C52,8.9,51.9,9,51.9,9.1
			c0,0.2,0.1,0.4,0.2,0.5C52.3,9.8,52.5,9.8,52.7,9.8z"/>
		<path class="st1" d="M56.4,6.7c0.2-0.3,0.4-0.5,0.7-0.6C57.3,6,57.6,5.9,58,5.9c0.6,0,1,0.2,1.3,0.5s0.4,0.9,0.4,1.6
			c0,0.8-0.2,1.4-0.5,1.8c-0.3,0.4-0.8,0.6-1.4,0.6c-0.7,0-1.2-0.2-1.5-0.7c-0.3-0.5-0.5-1.2-0.5-2.2c0-0.5,0-1,0.1-1.3
			C55.9,6,55.9,5.7,56,5.4c0.1-0.3,0.2-0.5,0.4-0.6c0.1-0.1,0.3-0.3,0.5-0.4c0.2-0.1,0.4-0.1,0.6-0.2c0.2,0,0.4-0.1,0.7-0.1
			c0.3,0,0.6-0.1,0.7-0.1c0.2,0,0.3-0.1,0.4-0.2l0.1,0.6c-0.1,0.1-0.1,0.1-0.2,0.1c-0.1,0-0.2,0.1-0.3,0.1c-0.1,0-0.2,0-0.4,0.1
			s-0.3,0-0.5,0c-0.3,0-0.5,0-0.7,0.1c-0.2,0-0.4,0.1-0.5,0.3c-0.1,0.1-0.3,0.3-0.3,0.5C56.5,6,56.4,6.3,56.4,6.7L56.4,6.7z
			 M56.5,8.2c0,0.2,0,0.4,0.1,0.7c0,0.2,0.1,0.4,0.2,0.6c0.1,0.2,0.2,0.3,0.4,0.4c0.2,0.1,0.3,0.1,0.5,0.1c0.4,0,0.7-0.1,0.9-0.4
			c0.2-0.3,0.3-0.7,0.3-1.3c0-0.2,0-0.4-0.1-0.6c0-0.2-0.1-0.4-0.2-0.5s-0.2-0.2-0.3-0.3c-0.1-0.1-0.3-0.1-0.5-0.1
			c-0.5,0-0.8,0.1-1,0.4C56.6,7.2,56.5,7.6,56.5,8.2z"/>
		<path class="st1" d="M60.6,8.2c0-0.8,0.2-1.3,0.5-1.8c0.3-0.4,0.8-0.6,1.5-0.6c0.3,0,0.6,0.1,0.9,0.2s0.5,0.3,0.6,0.5
			c0.2,0.2,0.3,0.5,0.4,0.7c0.1,0.3,0.1,0.6,0.1,1c0,0.8-0.2,1.3-0.5,1.8s-0.8,0.6-1.5,0.6c-0.3,0-0.6-0.1-0.9-0.2
			c-0.2-0.1-0.5-0.3-0.6-0.5s-0.3-0.5-0.4-0.7C60.6,8.8,60.6,8.5,60.6,8.2z M61.3,8.2c0,0.2,0,0.4,0.1,0.7s0.1,0.4,0.2,0.5
			c0.1,0.2,0.2,0.3,0.4,0.4c0.2,0.1,0.3,0.1,0.6,0.1c0.8,0,1.2-0.6,1.2-1.7c0-0.2,0-0.5-0.1-0.7s-0.1-0.4-0.2-0.5
			c-0.1-0.2-0.2-0.3-0.4-0.4c-0.2-0.1-0.3-0.1-0.6-0.1C61.7,6.4,61.3,7,61.3,8.2z"/>
		<path class="st1" d="M68.4,6.5H67v3.9h-0.7V6.5h-1.4V5.9h3.5V6.5z"/>
		<path class="st1" d="M69,6.2c0.2-0.1,0.5-0.2,0.8-0.3c0.3-0.1,0.6-0.1,0.9-0.1c0.3,0,0.6,0,0.8,0.1s0.3,0.2,0.4,0.3
			c0.1,0.1,0.2,0.3,0.2,0.4c0,0.2,0,0.3,0,0.5c0,0.4,0,0.7,0,1.1c0,0.3,0,0.7,0,1c0,0.2,0,0.4,0,0.6c0,0.2,0.1,0.4,0.1,0.5h-0.5
			l-0.2-0.6h0c-0.1,0.1-0.1,0.2-0.2,0.2c-0.1,0.1-0.2,0.2-0.3,0.2c-0.1,0.1-0.2,0.1-0.4,0.2c-0.1,0-0.3,0.1-0.5,0.1
			c-0.2,0-0.4,0-0.5-0.1s-0.3-0.1-0.4-0.3s-0.2-0.2-0.3-0.4c-0.1-0.2-0.1-0.3-0.1-0.5c0-0.3,0.1-0.5,0.2-0.7
			c0.1-0.2,0.3-0.3,0.5-0.4c0.2-0.1,0.4-0.2,0.7-0.2s0.6-0.1,0.9-0.1c0.1,0,0.2,0,0.2,0c0.1,0,0.2,0,0.2,0c0-0.2,0-0.3,0-0.5
			c0-0.3-0.1-0.6-0.2-0.7c-0.1-0.1-0.4-0.2-0.7-0.2c-0.1,0-0.2,0-0.3,0c-0.1,0-0.2,0-0.4,0.1s-0.2,0.1-0.4,0.1
			c-0.1,0-0.2,0.1-0.3,0.1L69,6.2z M70.3,9.8c0.2,0,0.3,0,0.5-0.1c0.1,0,0.2-0.1,0.3-0.2s0.2-0.1,0.2-0.2s0.1-0.2,0.1-0.2V8.4
			c-0.1,0-0.2,0-0.3,0s-0.2,0-0.3,0c-0.2,0-0.4,0-0.5,0c-0.2,0-0.3,0.1-0.5,0.1c-0.1,0.1-0.2,0.1-0.3,0.2c-0.1,0.1-0.1,0.2-0.1,0.4
			c0,0.2,0.1,0.4,0.2,0.5C69.9,9.8,70,9.8,70.3,9.8z"/>
		<path class="st1" d="M76.3,8.4h-2v2h-0.7V5.9h0.7v1.9h2V5.9H77v4.5h-0.7V8.4z"/>
		<path class="st1" d="M78.1,8.2c0-0.8,0.2-1.3,0.5-1.8C79,6,79.5,5.8,80.1,5.8c0.3,0,0.6,0.1,0.9,0.2s0.5,0.3,0.6,0.5
			c0.2,0.2,0.3,0.5,0.4,0.7c0.1,0.3,0.1,0.6,0.1,1c0,0.8-0.2,1.3-0.5,1.8s-0.8,0.6-1.5,0.6c-0.3,0-0.6-0.1-0.9-0.2
			c-0.2-0.1-0.5-0.3-0.6-0.5s-0.3-0.5-0.4-0.7C78.2,8.8,78.1,8.5,78.1,8.2z M78.9,8.2c0,0.2,0,0.4,0.1,0.7s0.1,0.4,0.2,0.5
			c0.1,0.2,0.2,0.3,0.4,0.4c0.2,0.1,0.3,0.1,0.6,0.1c0.8,0,1.2-0.6,1.2-1.7c0-0.2,0-0.5-0.1-0.7s-0.1-0.4-0.2-0.5
			c-0.1-0.2-0.2-0.3-0.4-0.4c-0.2-0.1-0.3-0.1-0.6-0.1C79.3,6.4,78.9,7,78.9,8.2z"/>
	</g>
	<path class="st1" fill="white" d="M24.3,20.3c0,1.6,0.1,3.1,0.3,4.3h-2.9l-0.3-2.3h-0.1c-1,1.4-2.9,2.7-5.5,2.7c-3.6,0-5.5-2.6-5.5-5.1
		c0-4.3,3.8-6.7,10.8-6.7v-0.4c0-1.4-0.4-4.1-4.1-4.1c-1.7,0-3.4,0.5-4.7,1.3l-0.7-2.2C13,7,15.2,6.4,17.5,6.4
		c5.5,0,6.8,3.7,6.8,7.3V20.3z M21.1,15.5c-3.6-0.1-7.6,0.6-7.6,4c0,2.1,1.4,3.1,3,3.1c2.4,0,3.9-1.5,4.4-3c0.1-0.4,0.1-0.7,0.1-1
		V15.5z"/>
	<g>
		<path class="st1" fill="white" d="M3.1,26.1l6.4-23h2.2l-6.4,23H3.1z"/>
	</g>
</g>
</svg>
