<svg xmlns="http://www.w3.org/2000/svg" xmlns:xlink="http://www.w3.org/1999/xlink" version="1.1" id="Layer_1" x="0px" y="0px" viewBox="0 0 172 29" style="enable-background:new 0 0 172 29;" xml:space="preserve" width="100%" height="100%" ><rect id="svgEditorBackground" x="0" y="0" width="172" height="29" style="fill:none;stroke:none;"/>
<style type="text/css">
	.st0{fill:#0B45F5;}
	.st1{fill:#black;}
	.st2{enable-background:new    ;}
</style>
<g>
	<rect x="0.8" y="1" class="st0" width="27" height="27"/>
	<g>
		<g>
			<path class="st1" d="M87.1,18.2h-2.5999999999999943v6.900000000000002h-2.299999999999997v-8.8h2.299999999999997v1.1999999999999993c0.09999999999999432,-0.3000000000000007,0.29999999999999716,-0.6000000000000014,0.5,-0.6999999999999993c0.20000000000000284,-0.1999999999999993,0.4000000000000057,-0.3999999999999986,0.7000000000000028,-0.3999999999999986c0.09999999999999432,0,0.29999999999999716,-0.10000000000000142,0.4000000000000057,-0.10000000000000142c0.20000000000000284,0,0.29999999999999716,0,0.5,0c0.20000000000000284,0,0.4000000000000057,0,0.5999999999999943,0.10000000000000142v1.7999999999999972l-0.10000000000000853,0Z" style="fill:white;"/>
		</g>
		<g>
			<path class="st1" d="M42.5,25h-6.299999999999997c-0.7000000000000028,0,-1.2999999999999972,-0.1999999999999993,-1.7999999999999972,-0.6999999999999993c-0.5,-0.5,-0.7000000000000028,-1.1000000000000014,-0.7000000000000028,-1.8000000000000007c0,-0.6999999999999993,0.20000000000000284,-1.3999999999999986,0.7000000000000028,-1.8999999999999986c0.5,-0.5,1,-0.6999999999999993,1.7000000000000028,-0.6999999999999993h4.100000000000001v-0.5c0,-0.1999999999999993,0,-0.3000000000000007,-0.10000000000000142,-0.3999999999999986c0,-0.10000000000000142,-0.10000000000000142,-0.1999999999999993,-0.20000000000000284,-0.3999999999999986c-0.20000000000000284,-0.1999999999999993,-0.29999999999999716,-0.3000000000000007,-0.5,-0.3999999999999986c-0.20000000000000284,0,-0.3999999999999986,-0.10000000000000142,-0.7000000000000028,-0.10000000000000142h-4.399999999999999v-1.8999999999999986h4.5c0.7999999999999972,0,1.5,0.10000000000000142,1.7999999999999972,0.1999999999999993c0.3999999999999986,0.10000000000000142,0.7000000000000028,0.3999999999999986,1.1000000000000014,0.6000000000000014c0.3999999999999986,0.3999999999999986,0.6000000000000014,0.8000000000000007,0.7000000000000028,1.1999999999999993c0.10000000000000142,0.3999999999999986,0.20000000000000284,1,0.20000000000000284,1.6999999999999993l-0.10000000000000853,5.099999999999994l0,0ZM40.1,23.1v-1.6999999999999993h-3c-0.29999999999999716,0,-0.5,0.10000000000000142,-0.7000000000000028,0.1999999999999993c-0.20000000000000284,0.1999999999999993,-0.29999999999999716,0.3999999999999986,-0.29999999999999716,0.6999999999999993c0,0.1999999999999993,0.10000000000000142,0.3999999999999986,0.29999999999999716,0.6000000000000014c0.20000000000000284,0.1999999999999993,0.3999999999999986,0.1999999999999993,0.7000000000000028,0.1999999999999993l3,0l0,0ZM52,25h-4.5c-0.7999999999999972,0,-1.3999999999999986,0,-1.7000000000000028,-0.10000000000000142c-0.6000000000000014,-0.10000000000000142,-1,-0.3999999999999986,-1.2999999999999972,-0.8999999999999986c-0.3999999999999986,-0.5,-0.6000000000000014,-1.1000000000000014,-0.6000000000000014,-1.8000000000000007v-6h2.3999999999999986v5.800000000000001c0,0.3000000000000007,0.10000000000000142,0.5,0.3999999999999986,0.6999999999999993c0.20000000000000284,0.1999999999999993,0.5,0.3000000000000007,0.7999999999999972,0.3000000000000007h2.299999999999997v-6.899999999999999h2.20000000000001l0,8.899999999999999l0,0ZM59.3,18h-2.299999999999997v4c0,0.3999999999999986,0.10000000000000142,0.6999999999999993,0.3999999999999986,0.8999999999999986c0.29999999999999716,0.1999999999999993,0.7000000000000028,0.3999999999999986,1.1000000000000014,0.3999999999999986h0.7000000000000028v1.7000000000000028h-2.200000000000003c-0.7000000000000028,0,-1.2000000000000028,-0.1999999999999993,-1.7000000000000028,-0.6999999999999993c-0.29999999999999716,-0.3000000000000007,-0.3999999999999986,-0.6000000000000014,-0.5,-0.8999999999999986s-0.10000000000000142,-0.6999999999999993,-0.10000000000000142,-1.1999999999999993v-4.200000000000003h-1.5v-1.8000000000000007h1.5v-3.0999999999999996h2.3000000000000043v3.0999999999999996h2.299999999999997v1.8000000000000007ZM70.3,20.6c0,1.5,-0.5,2.6999999999999993,-1.5,3.5c-0.9000000000000057,0.6999999999999993,-2.0999999999999943,1.1000000000000014,-3.700000000000003,1.1000000000000014s-2.700000000000003,-0.3999999999999986,-3.6000000000000014,-1c-1,-0.8000000000000007,-1.5,-2,-1.5,-3.6999999999999993c0,-1.3999999999999986,0.5,-2.5,1.6000000000000014,-3.3000000000000007c0.8999999999999986,-0.6999999999999993,2.1000000000000014,-1.1000000000000014,3.5,-1.1000000000000014c1.5,0,2.799999999999997,0.3999999999999986,3.700000000000003,1.1000000000000014c1,0.7999999999999972,1.5,1.9999999999999964,1.5,3.3999999999999986l0,0ZM67.7,20.5c0,-0.6999999999999993,-0.20000000000000284,-1.3000000000000007,-0.7000000000000028,-1.8000000000000007c-0.4000000000000057,-0.3999999999999986,-1,-0.6999999999999993,-1.7999999999999972,-0.6999999999999993c-0.7000000000000028,0,-1.2999999999999972,0.1999999999999993,-1.7000000000000028,0.6999999999999993c-0.5,0.5,-0.7000000000000028,1.1000000000000014,-0.7000000000000028,1.8000000000000007c0,0.8999999999999986,0.20000000000000284,1.5,0.7000000000000028,2c0.5,0.5,1.0999999999999943,0.6999999999999993,1.7999999999999972,0.6999999999999993c0.7999999999999972,0,1.5,-0.3000000000000007,1.7999999999999972,-0.8000000000000007c0.4000000000000057,-0.1999999999999993,0.6000000000000085,-0.8999999999999986,0.6000000000000085,-1.8999999999999986l0,0Z" style="fill:white;"/>
		</g>
		<g>
			<path class="st1" d="M80.5,25h-5.5c-1.0999999999999943,0,-1.9000000000000057,-0.5,-2.5999999999999943,-1.3999999999999986c-0.5999999999999943,-0.8999999999999986,-1,-1.8999999999999986,-1,-3.1000000000000014c0,-1.1000000000000014,0.4000000000000057,-2.1000000000000014,1.0999999999999943,-3c0.7000000000000028,-0.8999999999999986,1.5999999999999943,-1.3000000000000007,2.700000000000003,-1.3000000000000007h3v-3.0999999999999996h2.299999999999997v11.9l0,0ZM78.1,23v-5h-2.200000000000003c-0.5999999999999943,0,-1.0999999999999943,0.1999999999999993,-1.5,0.6999999999999993c-0.4000000000000057,0.5,-0.5999999999999943,1.1000000000000014,-0.5999999999999943,1.6999999999999993c0,0.6999999999999993,0.20000000000000284,1.3000000000000007,0.5999999999999943,1.8000000000000007c0.4000000000000057,0.5,0.9000000000000057,0.8000000000000007,1.5,0.8000000000000007c-0.09999999999999432,0,2.200000000000003,0,2.200000000000003,0ZM90.7,15.2h-2.299999999999997v-2.0999999999999996h2.299999999999997v2.0999999999999996ZM90.7,25h-2.299999999999997v-8.8h2.299999999999997v8.8Z" style="fill:white;"/>
		</g>
		<g>
			<path class="st1" d="M99.4,16.2l-2.4000000000000057,6.099999999999998l-2.299999999999997,-6.100000000000001h-2.799999999999997l3.5999999999999943,8.8h2.9000000000000057l3.799999999999997,-8.8l-2.799999999999997,3.552713678800501e-15ZM112.2,20c0,0.10000000000000142,0,0.1999999999999993,0,0.3000000000000007c0,-0.10000000000000142,0,-0.1999999999999993,0,-0.3000000000000007ZM112.2,20.6l0,0c0,0.1999999999999993,0,0.3000000000000007,0,0.5c0,-0.20000000000000284,0,-0.40000000000000213,0,-0.5l0,0ZM102.1,20c0,0,0,0,0,0c0,0,0,0,0,0ZM102,20.5l0,0c0,-0.10000000000000142,0,-0.1999999999999993,0,-0.1999999999999993c0,0.09999999999999787,0,0.09999999999999787,0,0.1999999999999993Z" style="fill:white;"/>
		</g>
		<g>
			<path class="st1" d="M112.2,20.3c0,-0.10000000000000142,0,-0.1999999999999993,0,-0.3000000000000007c0,0,0,0,0,-0.10000000000000142c-0.09999999999999432,-1.1000000000000014,-0.5999999999999943,-2,-1.2999999999999972,-2.6000000000000014c-0.9000000000000057,-0.6999999999999993,-2.0999999999999943,-1.1000000000000014,-3.700000000000003,-1.1000000000000014c0,0,0,0,0,0c0,0,0,0,0,0c-1.5,0,-2.799999999999997,0.3999999999999986,-3.700000000000003,1.1000000000000014c-0.7999999999999972,0.6000000000000014,-1.2000000000000028,1.5,-1.2999999999999972,2.6000000000000014c0,0,0,0,0,0.10000000000000142c0,0.10000000000000142,0,0.1999999999999993,0,0.3000000000000007c0,0.10000000000000142,0,0.1999999999999993,0,0.1999999999999993l0,0c0,0.1999999999999993,0,0.3000000000000007,0,0.5c0.09999999999999432,1.3000000000000007,0.5999999999999943,2.1999999999999993,1.5,2.8999999999999986c0.9000000000000057,0.6999999999999993,2,1,3.5999999999999943,1c0,0,0,0,0,0c0,0,0,0,0,0c1.5,0,2.5999999999999943,-0.3000000000000007,3.4000000000000057,-0.8999999999999986l-1.2999999999999972,-1.3000000000000007c-1.0999999999999943,0.5,-2,0.3999999999999986,-2,0.3999999999999986l0,0h0c-0.7000000000000028,0,-1.2999999999999972,-0.3000000000000007,-1.7999999999999972,-0.6999999999999993c-0.29999999999999716,-0.3000000000000007,-0.5,-0.6000000000000014,-0.5999999999999943,-1h7.400000000000006c0,-0.1999999999999993,0,-0.3000000000000007,0,-0.3999999999999986s0,-0.3000000000000007,0,-0.5l0,0c-0.20000000000001705,-0.10000000000000142,-0.20000000000001705,-0.10000000000000142,-0.20000000000001705,-0.1999999999999993l0,0ZM104.7,19.8c0.09999999999999432,-0.3999999999999986,0.29999999999999716,-0.6999999999999993,0.5999999999999943,-1c0.20000000000000284,-0.1999999999999993,0.4000000000000057,-0.3999999999999986,0.7000000000000028,-0.5c0.29999999999999716,-0.1999999999999993,0.7000000000000028,-0.1999999999999993,1.0999999999999943,-0.1999999999999993h0c0.4000000000000057,0,0.7000000000000028,0.10000000000000142,1,0.1999999999999993c0.29999999999999716,0.10000000000000142,0.5,0.3000000000000007,0.7000000000000028,0.5c0.29999999999999716,0.3000000000000007,0.5,0.6000000000000014,0.5999999999999943,1h-4.699999999999989l0,0Z" style="fill:white;"/>
		</g>
		<g class="st2">
			<path class="st1" d="M114,28h-1.0999999999999943l5.700000000000003,-16.1h1.0999999999999943l-5.700000000000003,16.1Z" style="fill:white;"/>
			<path class="st1" d="M123.3,16.1c0.5999999999999943,0,1,0.10000000000000142,1.4000000000000057,0.1999999999999993c0.4000000000000057,0.1999999999999993,0.7000000000000028,0.3999999999999986,1,0.6999999999999993s0.4000000000000057,0.6000000000000014,0.5,1c0.09999999999999432,0.3999999999999986,0.20000000000000284,0.8000000000000007,0.20000000000000284,1.3000000000000007v5.400000000000002c-0.09999999999999432,0,-0.29999999999999716,0.10000000000000142,-0.5,0.10000000000000142c-0.20000000000000284,0,-0.5,0.10000000000000142,-0.7000000000000028,0.10000000000000142c-0.29999999999999716,0,-0.5999999999999943,0.10000000000000142,-0.9000000000000057,0.10000000000000142c-0.29999999999999716,0,-0.7000000000000028,0,-1,0c-0.5,0,-0.9000000000000057,0,-1.2999999999999972,-0.10000000000000142c-0.4000000000000057,-0.10000000000000142,-0.7000000000000028,-0.3000000000000007,-1,-0.5c-0.29999999999999716,-0.1999999999999993,-0.5,-0.5,-0.7000000000000028,-0.8000000000000007c-0.20000000000000284,-0.3000000000000007,-0.20000000000000284,-0.8000000000000007,-0.20000000000000284,-1.1999999999999993c0,-0.5,0.09999999999999432,-0.8999999999999986,0.29999999999999716,-1.1999999999999993c0.20000000000000284,-0.3000000000000007,0.4000000000000057,-0.6000000000000014,0.7000000000000028,-0.8000000000000007c0.29999999999999716,-0.1999999999999993,0.7000000000000028,-0.3999999999999986,1.0999999999999943,-0.5c0.4000000000000057,-0.10000000000000142,0.9000000000000057,-0.10000000000000142,1.4000000000000057,-0.10000000000000142c0.20000000000000284,0,0.29999999999999716,0,0.5,0c0.20000000000000284,0,0.29999999999999716,0,0.5,0.10000000000000142c0.20000000000000284,0,0.29999999999999716,0.10000000000000142,0.4000000000000057,0.10000000000000142c0.09999999999999432,0,0.20000000000000284,0.10000000000000142,0.20000000000000284,0.10000000000000142v-0.5c0,-0.3000000000000007,0,-0.6000000000000014,-0.09999999999999432,-0.8999999999999986c0,-0.3000000000000007,-0.09999999999999432,-0.5,-0.29999999999999716,-0.8000000000000007c-0.09999999999999432,-0.1999999999999993,-0.4000000000000057,-0.3999999999999986,-0.5999999999999943,-0.5c-0.29999999999999716,-0.10000000000000142,-0.5999999999999943,-0.1999999999999993,-1.0999999999999943,-0.1999999999999993c-0.5999999999999943,0,-1.0999999999999943,0,-1.4000000000000057,0.10000000000000142c-0.29999999999999716,0.10000000000000142,-0.5,0.1999999999999993,-0.7000000000000028,0.1999999999999993l-0.09999999999999432,-0.8999999999999986c0.20000000000000284,-0.10000000000000142,0.5,-0.1999999999999993,0.9000000000000057,-0.1999999999999993c0.4999999999999716,-0.30000000000001137,0.9999999999999716,-0.30000000000001137,1.4999999999999716,-0.30000000000001137ZM123.4,24.1c0.4000000000000057,0,0.7999999999999972,0,1.0999999999999943,0c0.29999999999999716,0,0.5999999999999943,-0.10000000000000142,0.7999999999999972,-0.10000000000000142v-3c-0.09999999999999432,-0.10000000000000142,-0.29999999999999716,-0.10000000000000142,-0.5999999999999943,-0.1999999999999993c-0.29999999999999716,-0.10000000000000142,-0.5999999999999943,-0.10000000000000142,-1.0999999999999943,-0.10000000000000142c-0.29999999999999716,0,-0.5,0,-0.7999999999999972,0.10000000000000142c-0.29999999999999716,0,-0.5999999999999943,0.10000000000000142,-0.7999999999999972,0.1999999999999993c-0.20000000000000284,0.10000000000000142,-0.4000000000000057,0.3000000000000007,-0.5999999999999943,0.5c-0.20000000000000284,0.1999999999999993,-0.20000000000000284,0.5,-0.20000000000000284,0.8999999999999986c0,0.3000000000000007,0.09999999999999432,0.6000000000000014,0.20000000000000284,0.8000000000000007c0.09999999999999432,0.1999999999999993,0.29999999999999716,0.3999999999999986,0.4000000000000057,0.5c0.20000000000000284,0.10000000000000142,0.4000000000000057,0.1999999999999993,0.7000000000000028,0.3000000000000007c0.29999999999996874,0.10000000000000142,0.5999999999999659,0.10000000000000142,0.8999999999999773,0.10000000000000142Z" style="fill:white;"/>
			<path class="st1" d="M134.8,23.9c-0.09999999999999432,0.10000000000000142,-0.19999999999998863,0.10000000000000142,-0.30000000000001137,0.1999999999999993c-0.09999999999999432,0.10000000000000142,-0.30000000000001137,0.10000000000000142,-0.5,0.1999999999999993c-0.19999999999998863,0.10000000000000142,-0.4000000000000057,0.10000000000000142,-0.6999999999999886,0.1999999999999993c-0.19999999999998863,0,-0.5,0.10000000000000142,-0.8000000000000114,0.10000000000000142c-0.5,0,-1,-0.10000000000000142,-1.4000000000000057,-0.1999999999999993c-0.5,-0.1999999999999993,-0.9000000000000057,-0.3999999999999986,-1.1999999999999886,-0.6999999999999993c-0.30000000000001137,-0.3000000000000007,-0.5999999999999943,-0.8000000000000007,-0.8000000000000114,-1.3000000000000007c-0.19999999999998863,-0.5,-0.30000000000001137,-1.1999999999999993,-0.30000000000001137,-1.8999999999999986c0,-0.6000000000000014,0.09999999999999432,-1.1999999999999993,0.30000000000001137,-1.6999999999999993c0.19999999999998863,-0.5,0.5,-1,0.8000000000000114,-1.3999999999999986c0.30000000000001137,-0.3999999999999986,0.8000000000000114,-0.6999999999999993,1.3000000000000114,-0.8999999999999986c0.5,-0.1999999999999993,1.0999999999999943,-0.3000000000000007,1.6999999999999886,-0.3000000000000007c0.8000000000000114,0,1.4000000000000057,0.10000000000000142,1.9000000000000057,0.1999999999999993c0.5,0.10000000000000142,0.9000000000000057,0.1999999999999993,1.1999999999999886,0.3000000000000007v7.800000000000001c0,1.3000000000000007,-0.30000000000001137,2.1999999999999993,-1,2.8000000000000007c-0.6999999999999886,0.5,-1.6999999999999886,0.8000000000000007,-3,0.8000000000000007c-0.5999999999999943,0,-1.0999999999999943,0,-1.5,-0.10000000000000142c-0.4000000000000057,-0.10000000000000142,-0.8000000000000114,-0.1999999999999993,-1.1999999999999886,-0.3000000000000007l0.19999999999998863,-1c0.30000000000001137,0.10000000000000142,0.5999999999999943,0.1999999999999993,1.0999999999999943,0.3000000000000007c0.5,0.10000000000000142,0.9000000000000057,0.10000000000000142,1.4000000000000057,0.10000000000000142c1,0,1.8000000000000114,-0.1999999999999993,2.1999999999999886,-0.6000000000000014c0.5,-0.3999999999999986,0.6999999999999886,-1.1000000000000014,0.6999999999999886,-2v-0.600000000000005ZM134.8,17.3c-0.19999999999998863,-0.10000000000000142,-0.4000000000000057,-0.10000000000000142,-0.6999999999999886,-0.1999999999999993c-0.30000000000001137,0,-0.6999999999999886,-0.10000000000000142,-1.3000000000000114,-0.10000000000000142c-0.5,0,-0.9000000000000057,0.10000000000000142,-1.1999999999999886,0.1999999999999993c-0.4000000000000057,0.1999999999999993,-0.6999999999999886,0.3999999999999986,-0.9000000000000057,0.6999999999999993c-0.30000000000001137,0.3000000000000007,-0.4000000000000057,0.6000000000000014,-0.5999999999999943,1c-0.09999999999999432,0.3999999999999986,-0.19999999999998863,0.8999999999999986,-0.19999999999998863,1.3000000000000007c0,0.6000000000000014,0.09999999999999432,1.1000000000000014,0.19999999999998863,1.5c0.19999999999998863,0.3999999999999986,0.4000000000000057,0.6999999999999993,0.5999999999999943,1c0.19999999999998863,0.3000000000000007,0.5,0.3999999999999986,0.9000000000000057,0.6000000000000014c0.30000000000001137,0.10000000000000142,0.5999999999999943,0.1999999999999993,1,0.1999999999999993c0.5,0,0.9000000000000057,-0.10000000000000142,1.3000000000000114,-0.1999999999999993c0.4000000000000057,-0.10000000000000142,0.6999999999999886,-0.3000000000000007,0.9000000000000057,-0.5v-5.5Z" style="fill:white;"/>
			<path class="st1" d="M138.2,20.6c0,-0.8000000000000007,0.09999999999999432,-1.3999999999999986,0.30000000000001137,-2c0.19999999999998863,-0.6000000000000014,0.5,-1,0.8000000000000114,-1.3999999999999986c0.30000000000001137,-0.3999999999999986,0.6999999999999886,-0.6999999999999993,1.1999999999999886,-0.8000000000000007c0.4000000000000057,-0.1999999999999993,0.9000000000000057,-0.3000000000000007,1.4000000000000057,-0.3000000000000007c1.0999999999999943,0,1.9000000000000057,0.3000000000000007,2.5,1c0.5999999999999943,0.6999999999999993,0.9000000000000057,1.6999999999999993,0.9000000000000057,3.1999999999999993c0,0.10000000000000142,0,0.1999999999999993,0,0.3000000000000007c0,0.10000000000000142,0,0.1999999999999993,0,0.1999999999999993h-6c0,1.1000000000000014,0.30000000000001137,1.8999999999999986,0.8000000000000114,2.3999999999999986c0.5,0.6000000000000014,1.3000000000000114,0.8000000000000007,2.3000000000000114,0.8000000000000007c0.5999999999999943,0,1.0999999999999943,-0.10000000000000142,1.4000000000000057,-0.1999999999999993c0.30000000000001137,-0.10000000000000142,0.5999999999999943,-0.1999999999999993,0.6999999999999886,-0.3000000000000007l0.19999999999998863,0.8999999999999986c-0.19999999999998863,0.10000000000000142,-0.4000000000000057,0.1999999999999993,-0.9000000000000057,0.3000000000000007c-0.4000000000000057,0.10000000000000142,-0.9000000000000057,0.1999999999999993,-1.5,0.1999999999999993c-0.8000000000000114,0,-1.4000000000000057,-0.10000000000000142,-1.9000000000000057,-0.3000000000000007c-0.5,-0.1999999999999993,-1,-0.5,-1.3000000000000114,-0.8999999999999986c-0.30000000000001137,-0.3999999999999986,-0.5999999999999943,-0.8999999999999986,-0.6999999999999886,-1.3999999999999986c-0.09999999999999432,-0.5,-0.20000000000001705,-1.1000000000000014,-0.20000000000001705,-1.6999999999999993ZM144.3,19.9c0,-0.8999999999999986,-0.19999999999998863,-1.6000000000000014,-0.5999999999999943,-2.1000000000000014c-0.4000000000000057,-0.5,-1,-0.6999999999999993,-1.6999999999999886,-0.6999999999999993c-0.4000000000000057,0,-0.6999999999999886,0.10000000000000142,-1,0.1999999999999993c-0.30000000000001137,0.1999999999999993,-0.5999999999999943,0.3999999999999986,-0.8000000000000114,0.6000000000000014s-0.4000000000000057,0.6000000000000014,-0.5,0.8999999999999986c-0.09999999999999432,0.3000000000000007,-0.19999999999998863,0.6999999999999993,-0.19999999999998863,1.1000000000000014h4.799999999999983Z" style="fill:white;"/>
			<path class="st1" d="M147.8,16.6c0.30000000000001137,-0.10000000000000142,0.8000000000000114,-0.1999999999999993,1.3000000000000114,-0.3000000000000007c0.5,-0.10000000000000142,1.1999999999999886,-0.1999999999999993,2,-0.1999999999999993c0.6999999999999886,0,1.1999999999999886,0.10000000000000142,1.5999999999999943,0.3000000000000007c0.4000000000000057,0.1999999999999993,0.8000000000000114,0.5,1,0.8000000000000007c0.30000000000001137,0.3000000000000007,0.4000000000000057,0.8000000000000007,0.5999999999999943,1.3000000000000007c0.09999999999999432,0.5,0.19999999999998863,1,0.19999999999998863,1.6000000000000014v4.800000000000001h-1.0999999999999943v-4.5c0,-0.6000000000000014,0,-1.1000000000000014,-0.09999999999999432,-1.5c-0.09999999999999432,-0.3999999999999986,-0.19999999999998863,-0.8000000000000007,-0.4000000000000057,-1c-0.19999999999998863,-0.3000000000000007,-0.4000000000000057,-0.5,-0.8000000000000114,-0.6000000000000014c-0.30000000000001137,-0.10000000000000142,-0.6999999999999886,-0.1999999999999993,-1.1999999999999886,-0.1999999999999993c-0.5,0,-1,0,-1.3000000000000114,0.10000000000000142c-0.4000000000000057,0.10000000000000142,-0.5999999999999943,0.10000000000000142,-0.6999999999999886,0.10000000000000142v7.5h-1.0999999999999943v-8.200000000000006Z" style="fill:white;"/>
			<path class="st1" d="M160.8,25.1c-0.6999999999999886,0,-1.3000000000000114,-0.10000000000000142,-1.8000000000000114,-0.3000000000000007c-0.5,-0.1999999999999993,-0.9000000000000057,-0.5,-1.3000000000000114,-0.8999999999999986c-0.30000000000001137,-0.3999999999999986,-0.5999999999999943,-0.8999999999999986,-0.8000000000000114,-1.3999999999999986c-0.19999999999998863,-0.5,-0.30000000000001137,-1.1999999999999993,-0.30000000000001137,-1.8000000000000007c0,-0.6999999999999993,0.09999999999999432,-1.3000000000000007,0.30000000000001137,-1.8000000000000007c0.19999999999998863,-0.6000000000000014,0.4000000000000057,-1,0.8000000000000114,-1.3999999999999986c0.30000000000001137,-0.3999999999999986,0.8000000000000114,-0.6999999999999993,1.1999999999999886,-0.8999999999999986c0.5,-0.1999999999999993,1,-0.3000000000000007,1.5999999999999943,-0.3000000000000007c0.5,0,0.9000000000000057,0,1.3000000000000114,0.10000000000000142c0.4000000000000057,0.10000000000000142,0.6999999999999886,0.1999999999999993,0.9000000000000057,0.3000000000000007l-0.30000000000001137,0.8999999999999986c-0.19999999999998863,-0.10000000000000142,-0.5,-0.1999999999999993,-0.6999999999999886,-0.3000000000000007c-0.30000000000001137,-0.10000000000000142,-0.5999999999999943,-0.10000000000000142,-1.0999999999999943,-0.10000000000000142c-1,0,-1.6999999999999886,0.3000000000000007,-2.1999999999999886,0.8999999999999986c-0.5,0.6000000000000014,-0.6999999999999886,1.5,-0.6999999999999886,2.6000000000000014c0,0.5,0.09999999999999432,1,0.19999999999998863,1.3999999999999986c0.09999999999999432,0.3999999999999986,0.30000000000001137,0.8000000000000007,0.5,1.1000000000000014c0.19999999999998863,0.3000000000000007,0.5999999999999943,0.5,1,0.6999999999999993s0.9000000000000057,0.3000000000000007,1.4000000000000057,0.3000000000000007c0.5,0,0.9000000000000057,-0.10000000000000142,1.1999999999999886,-0.1999999999999993c0.30000000000001137,-0.10000000000000142,0.5,-0.1999999999999993,0.6999999999999886,-0.3000000000000007l0.19999999999998863,0.8999999999999986c-0.19999999999998863,0.10000000000000142,-0.5,0.1999999999999993,-0.9000000000000057,0.3000000000000007c-0.29999999999998295,0.09999999999999787,-0.6999999999999602,0.1999999999999993,-1.1999999999999602,0.1999999999999993Z" style="fill:white;"/>
			<path class="st1" d="M167.4,25.1c-0.4000000000000057,-0.6999999999999993,-0.6999999999999886,-1.3999999999999986,-1.0999999999999943,-2.1000000000000014c-0.30000000000001137,-0.6999999999999993,-0.6999999999999886,-1.5,-1,-2.1999999999999993c-0.30000000000001137,-0.6999999999999993,-0.5999999999999943,-1.5,-0.8000000000000114,-2.1999999999999993c-0.19999999999998863,-0.6999999999999993,-0.5,-1.5,-0.5999999999999943,-2.1999999999999993h1.0999999999999943c0.09999999999999432,0.5,0.30000000000001137,1.1000000000000014,0.5,1.6999999999999993c0.19999999999998863,0.6000000000000014,0.4000000000000057,1.1999999999999993,0.5999999999999943,1.8999999999999986c0.19999999999998863,0.6999999999999993,0.5,1.3000000000000007,0.8000000000000114,2c0.30000000000001137,0.6999999999999993,0.5999999999999943,1.3999999999999986,0.9000000000000057,2c0.19999999999998863,-0.6999999999999993,0.5,-1.3000000000000007,0.6999999999999886,-1.8999999999999986c0.19999999999998863,-0.6000000000000014,0.4000000000000057,-1.1999999999999993,0.5,-1.8000000000000007c0.19999999999998863,-0.6000000000000014,0.30000000000001137,-1.1999999999999993,0.5,-1.8999999999999986c0.19999999999998863,-0.6000000000000014,0.30000000000001137,-1.3000000000000007,0.5,-2.1000000000000014h1.0999999999999943c-0.4000000000000057,1.6000000000000014,-0.8000000000000114,3.1999999999999993,-1.1999999999999886,4.699999999999999c-0.4000000000000057,1.5,-0.9000000000000057,2.8999999999999986,-1.5,4.199999999999999c-0.19999999999998863,0.5,-0.4000000000000057,0.8999999999999986,-0.6999999999999886,1.3000000000000007c-0.19999999999998863,0.3999999999999986,-0.5,0.6999999999999993,-0.6999999999999886,0.8999999999999986c-0.30000000000001137,0.1999999999999993,-0.5999999999999943,0.3999999999999986,-1,0.5c-0.4000000000000057,0.10000000000000142,-0.8000000000000114,0.1999999999999993,-1.3000000000000114,0.1999999999999993c-0.30000000000001137,0,-0.5,0,-0.8000000000000114,-0.10000000000000142c-0.19999999999998863,-0.10000000000000142,-0.4000000000000057,-0.10000000000000142,-0.4000000000000057,-0.10000000000000142l0.19999999999998863,-0.8999999999999986c0,0,0.19999999999998863,0.10000000000000142,0.4000000000000057,0.10000000000000142c0.19999999999998863,0.10000000000000142,0.4000000000000057,0.10000000000000142,0.5999999999999943,0.10000000000000142c0.30000000000001137,0,0.5999999999999943,0,0.8000000000000114,-0.10000000000000142c0.30000000000001137,-0.10000000000000142,0.5,-0.1999999999999993,0.6999999999999886,-0.3000000000000007c0.19999999999998863,-0.1999999999999993,0.4000000000000057,-0.3999999999999986,0.5,-0.6000000000000014c0.4000000000000057,-0.399999999999995,0.6000000000000227,-0.7999999999999972,0.700000000000017,-1.0999999999999943Z" style="fill:white;"/>
		</g>
	</g>
	<g>
		<path class="st1" d="M33.6,4.2c0.20000000000000284,-0.09999999999999964,0.5,-0.09999999999999964,0.7000000000000028,-0.09999999999999964c0.29999999999999716,0,0.5,0,0.7999999999999972,0c0.29999999999999716,0,0.6000000000000014,0,0.7999999999999972,0.09999999999999964s0.5,0.20000000000000018,0.7999999999999972,0.2999999999999998c0.30000000000000426,0.09999999999999964,0.4000000000000057,0.2999999999999998,0.6000000000000014,0.5s0.20000000000000284,0.5999999999999996,0.20000000000000284,1c0,0.40000000000000036,-0.10000000000000142,0.7000000000000002,-0.20000000000000284,1c-0.10000000000000142,0.2999999999999998,-0.29999999999999716,0.5,-0.5,0.5999999999999996s-0.5,0.3000000000000007,-0.7999999999999972,0.3000000000000007c-0.29999999999999716,0.09999999999999964,-0.6000000000000014,0.09999999999999964,-0.8999999999999986,0.09999999999999964c0,0,-0.10000000000000142,0,-0.10000000000000142,0c-0.10000000000000142,0,-0.10000000000000142,0,-0.20000000000000284,0c-0.10000000000000142,0,-0.10000000000000142,0,-0.20000000000000284,0c-0.10000000000000142,0,-0.10000000000000142,0,-0.20000000000000284,0v2.4000000000000004h-0.7000000000000028v-6.2ZM35.1,4.7c-0.20000000000000284,0,-0.29999999999999716,0,-0.5,0s-0.29999999999999716,0,-0.29999999999999716,0v2.6000000000000005c0,0,0.10000000000000142,0,0.10000000000000142,0c0.10000000000000142,0,0.10000000000000142,0,0.20000000000000284,0c0.10000000000000142,0,0.10000000000000142,0,0.20000000000000284,0s0.10000000000000142,0,0.10000000000000142,0c0.20000000000000284,0,0.3999999999999986,0,0.6000000000000014,-0.09999999999999964c0.20000000000000284,0,0.3999999999999986,-0.09999999999999964,0.5,-0.20000000000000018c0.20000000000000284,-0.09999999999999964,0.29999999999999716,-0.20000000000000018,0.3999999999999986,-0.40000000000000036c0.10000000000000142,-0.20000000000000018,0.10000000000000142,-0.40000000000000036,0.10000000000000142,-0.7000000000000002c0,-0.20000000000000018,0,-0.5,-0.10000000000000142,-0.5999999999999996c-0.10000000000000142,-0.20000000000000018,-0.20000000000000284,-0.2999999999999998,-0.3999999999999986,-0.40000000000000036c-0.20000000000000284,-0.09999999999999964,-0.29999999999999716,-0.20000000000000018,-0.5,-0.20000000000000018s-0.20000000000001705,0,-0.4000000000000128,0Z" style="fill:white;"/>
		<path class="st1" d="M38.2,6.2c0.19999999999999574,-0.10000000000000053,0.5,-0.20000000000000018,0.7999999999999972,-0.2999999999999998c0.29999999999999716,-0.09999999999999964,0.6000000000000014,-0.09999999999999964,0.8999999999999986,-0.09999999999999964c0.29999999999999716,0,0.6000000000000014,0,0.7999999999999972,0.09999999999999964s0.29999999999999716,0.20000000000000018,0.3999999999999986,0.2999999999999998c0.10000000000000142,0.09999999999999964,0.20000000000000284,0.2999999999999998,0.20000000000000284,0.40000000000000036c0,0.20000000000000018,0,0.2999999999999998,0,0.5c0,0.40000000000000036,0,0.7000000000000002,0,1.1000000000000005c0,0.3000000000000007,0,0.6999999999999993,0,1c0,0.1999999999999993,0,0.40000000000000036,0,0.5999999999999996c0,0.1999999999999993,0.10000000000000142,0.40000000000000036,0.10000000000000142,0.5h-0.5l-0.20000000000000284,-0.5999999999999996h0c-0.10000000000000142,0.09999999999999964,-0.10000000000000142,0.1999999999999993,-0.20000000000000284,0.1999999999999993c-0.10000000000000142,0.09999999999999964,-0.20000000000000284,0.1999999999999993,-0.29999999999999716,0.1999999999999993c-0.10000000000000142,0.09999999999999964,-0.20000000000000284,0.09999999999999964,-0.3999999999999986,0.1999999999999993c-0.10000000000000142,0,-0.29999999999999716,0.09999999999999964,-0.5,0.09999999999999964c-0.20000000000000284,0,-0.3999999999999986,0,-0.5,-0.09999999999999964s-0.29999999999999716,-0.09999999999999964,-0.3999999999999986,-0.3000000000000007s-0.29999999999999716,-0.09999999999999787,-0.3999999999999986,-0.29999999999999893c-0.10000000000000142,-0.1999999999999993,-0.10000000000000142,-0.3000000000000007,-0.10000000000000142,-0.5c0,-0.3000000000000007,0.10000000000000142,-0.5,0.20000000000000284,-0.6999999999999993c0.10000000000000142,-0.1999999999999993,0.29999999999999716,-0.3000000000000007,0.5,-0.40000000000000036c0.20000000000000284,-0.09999999999999964,0.3999999999999986,-0.20000000000000018,0.7000000000000028,-0.20000000000000018s0.6000000000000014,-0.09999999999999964,0.8999999999999986,-0.09999999999999964c0.10000000000000142,0,0.20000000000000284,0,0.20000000000000284,0c0.10000000000000142,0,0.20000000000000284,0,0.20000000000000284,0c0,-0.20000000000000018,0,-0.2999999999999998,0,-0.5c0,-0.2999999999999998,-0.10000000000000142,-0.6000000000000005,-0.20000000000000284,-0.7000000000000002c-0.10000000000000142,-0.09999999999999964,-0.3999999999999986,-0.20000000000000018,-0.7000000000000028,-0.20000000000000018c-0.10000000000000142,0,-0.20000000000000284,0,-0.29999999999999716,0c-0.10000000000000142,0,-0.20000000000000284,0,-0.3999999999999986,0.09999999999999964s-0.20000000000000284,0.09999999999999964,-0.3999999999999986,0.09999999999999964c-0.10000000000000142,0,-0.20000000000000284,0.09999999999999964,-0.29999999999999716,0.09999999999999964l-0.10000000000000853,-0.4999999999999982ZM39.4,9.8c0.20000000000000284,0,0.29999999999999716,0,0.5,-0.09999999999999964c0.10000000000000142,0,0.20000000000000284,-0.09999999999999964,0.29999999999999716,-0.1999999999999993s0.20000000000000284,-0.09999999999999964,0.20000000000000284,-0.1999999999999993s0.10000000000000142,-0.1999999999999993,0.10000000000000142,-0.1999999999999993v-0.7000000000000028c-0.10000000000000142,0,-0.20000000000000284,0,-0.29999999999999716,0s-0.20000000000000284,0,-0.29999999999999716,0c-0.20000000000000284,0,-0.3999999999999986,0,-0.5,0c-0.20000000000000284,0,-0.29999999999999716,0.09999999999999964,-0.5,0.09999999999999964c-0.10000000000000142,0.09999999999999964,-0.20000000000000284,0.09999999999999964,-0.29999999999999716,0.1999999999999993c-0.10000000000000142,0.09999999999999964,-0.10000000000000142,0.1999999999999993,-0.10000000000000142,0.40000000000000036c0,0.1999999999999993,0.10000000000000142,0.40000000000000036,0.20000000000000284,0.5c0.29999999999999005,0.20000000000000107,0.4999999999999929,0.20000000000000107,0.6999999999999886,0.20000000000000107Z" style="fill:white;"/>
		<path class="st1" d="M43.1,8.4v-0.6000000000000005h0.6000000000000014c0.10000000000000142,0,0.20000000000000284,0,0.29999999999999716,-0.09999999999999964c0.10000000000000142,0,0.20000000000000284,-0.09999999999999964,0.29999999999999716,-0.09999999999999964s0.20000000000000284,-0.09999999999999964,0.20000000000000284,-0.20000000000000018c0.10000000000000142,-0.09999999999999964,0.10000000000000142,-0.20000000000000018,0.10000000000000142,-0.2999999999999998c0,-0.20000000000000018,-0.10000000000000142,-0.40000000000000036,-0.20000000000000284,-0.5c-0.20000000000000284,-0.09999999999999964,-0.3999999999999986,-0.09999999999999964,-0.7000000000000028,-0.09999999999999964c-0.20000000000000284,0,-0.3999999999999986,0,-0.6000000000000014,0.09999999999999964s-0.29999999999999716,0.09999999999999964,-0.5,0.20000000000000018l-0.20000000000000284,-0.5c0.10000000000000853,-0.20000000000000107,0.4000000000000057,-0.3000000000000007,0.6000000000000085,-0.3000000000000007c0.20000000000000284,-0.09999999999999964,0.5,-0.09999999999999964,0.8999999999999986,-0.09999999999999964c1,0,1.5,0.40000000000000036,1.5,1.0999999999999996c0,0.20000000000000018,-0.10000000000000142,0.40000000000000036,-0.20000000000000284,0.5999999999999996c-0.19999999999999574,0.20000000000000018,-0.3999999999999986,0.3000000000000007,-0.5999999999999943,0.40000000000000036v0c0.3999999999999986,0.09999999999999964,0.6000000000000014,0.1999999999999993,0.7000000000000028,0.40000000000000036s0.20000000000000284,0.40000000000000036,0.20000000000000284,0.6999999999999993c0,0.1999999999999993,0,0.40000000000000036,-0.10000000000000142,0.5c-0.10000000000000142,0.1999999999999993,-0.20000000000000284,0.3000000000000007,-0.3999999999999986,0.40000000000000036c-0.20000000000000284,0.09999999999999964,-0.3999999999999986,0.1999999999999993,-0.6000000000000014,0.3000000000000007c-0.20000000000000284,0.09999999999999964,-0.5,0.09999999999999964,-0.7999999999999972,0.09999999999999964c-0.29999999999999716,0,-0.6000000000000014,0,-0.7999999999999972,-0.09999999999999964c-0.20000000000000284,-0.09999999999999964,-0.3999999999999986,-0.09999999999999964,-0.5,-0.1999999999999993l0.20000000000000284,-0.5999999999999996c0.10000000000000142,0.09999999999999964,0.29999999999999716,0.09999999999999964,0.5,0.1999999999999993s0.3999999999999986,0.09999999999999964,0.6000000000000014,0.09999999999999964c0.3999999999999986,0,0.6000000000000014,-0.09999999999999964,0.7999999999999972,-0.1999999999999993s0.29999999999999716,-0.3000000000000007,0.29999999999999716,-0.5999999999999996c0,-0.1999999999999993,-0.10000000000000142,-0.40000000000000036,-0.29999999999999716,-0.5c-0.20000000000000284,-0.09999999999999964,-0.5,-0.1999999999999993,-0.8999999999999986,-0.1999999999999993h-0.4000000000000128Z" style="fill:white;"/>
		<path class="st1" d="M46.7,5.9h0.5l0.10000000000000142,0.5h0c0.10000000000000142,-0.20000000000000018,0.29999999999999716,-0.40000000000000036,0.5,-0.5c0.20000000000000284,-0.09999999999999964,0.5,-0.20000000000000018,0.7999999999999972,-0.20000000000000018c0.6000000000000014,0,1,0.20000000000000018,1.2999999999999972,0.5s0.3999999999999986,0.9000000000000004,0.3999999999999986,1.7000000000000002c0,0.40000000000000036,0,0.6999999999999993,-0.10000000000000142,1c-0.10000000000000142,0.3000000000000007,-0.20000000000000284,0.5999999999999996,-0.3999999999999986,0.8000000000000007c-0.20000000000000284,0.1999999999999993,-0.3999999999999986,0.40000000000000036,-0.7000000000000028,0.5s-0.5,0.1999999999999993,-0.8999999999999986,0.1999999999999993c-0.20000000000000284,0,-0.3999999999999986,0,-0.5,0c-0.10000000000000142,0,-0.29999999999999716,-0.09999999999999964,-0.3999999999999986,-0.09999999999999964v1.9000000000000004h-0.7000000000000028v-6.300000000000001ZM48.5,6.4c-0.29999999999999716,0,-0.5,0.09999999999999964,-0.7000000000000028,0.20000000000000018c-0.20000000000000284,0.20000000000000018,-0.29999999999999716,0.40000000000000036,-0.3999999999999986,0.7000000000000002v2.1999999999999993c0.10000000000000142,0.09999999999999964,0.20000000000000284,0.09999999999999964,0.3999999999999986,0.1999999999999993c0.10000000000000142,0,0.29999999999999716,0.09999999999999964,0.5,0.09999999999999964c0.3999999999999986,0,0.7000000000000028,-0.1999999999999993,1,-0.5c0.20000000000000284,-0.3000000000000007,0.3999999999999986,-0.8000000000000007,0.3999999999999986,-1.3999999999999995c0,-0.20000000000000107,0,-0.5,-0.10000000000000142,-0.7000000000000011c0,-0.20000000000000018,-0.10000000000000142,-0.40000000000000036,-0.20000000000000284,-0.5c-0.10000000000000142,-0.09999999999999964,-0.20000000000000284,-0.20000000000000018,-0.3999999999999986,-0.29999999999999893c-0.09999999999999432,0.10000000000000053,-0.29999999999999005,8.881784197001252e-16,-0.4999999999999929,8.881784197001252e-16Z" style="fill:white;"/>
		<path class="st1" d="M51.5,6.2c0.20000000000000284,-0.10000000000000053,0.5,-0.20000000000000018,0.7999999999999972,-0.2999999999999998c0.29999999999999716,-0.09999999999999964,0.6000000000000014,-0.09999999999999964,0.8999999999999986,-0.09999999999999964c0.29999999999999716,0,0.6000000000000014,0,0.7999999999999972,0.09999999999999964s0.29999999999999716,0.20000000000000018,0.3999999999999986,0.2999999999999998c0.10000000000000142,0.09999999999999964,0.20000000000000284,0.2999999999999998,0.20000000000000284,0.40000000000000036c0,0.20000000000000018,0,0.2999999999999998,0,0.5c0,0.40000000000000036,0,0.7000000000000002,0,1.1000000000000005c0,0.3000000000000007,0,0.6999999999999993,0,1c0,0.1999999999999993,0,0.40000000000000036,0,0.5999999999999996c0,0.1999999999999993,0.10000000000000142,0.40000000000000036,0.10000000000000142,0.5h-0.5l-0.19999999999999574,-0.5h0c-0.10000000000000142,0.09999999999999964,-0.10000000000000142,0.1999999999999993,-0.20000000000000284,0.1999999999999993c-0.10000000000000142,0.09999999999999964,-0.20000000000000284,0.1999999999999993,-0.29999999999999716,0.1999999999999993c-0.10000000000000142,0.09999999999999964,-0.20000000000000284,0.09999999999999964,-0.3999999999999986,0.1999999999999993c-0.10000000000000142,0,-0.29999999999999716,0.09999999999999964,-0.5,0.09999999999999964c-0.20000000000000284,0,-0.3999999999999986,0,-0.5,-0.09999999999999964s-0.29999999999999716,-0.09999999999999964,-0.3999999999999986,-0.3000000000000007s-0.20000000000000284,-0.1999999999999993,-0.29999999999999716,-0.40000000000000036c-0.10000000000000142,-0.1999999999999993,-0.10000000000000142,-0.3000000000000007,-0.10000000000000142,-0.5c0,-0.3000000000000007,0.10000000000000142,-0.5,0.20000000000000284,-0.6999999999999993c0.10000000000000142,-0.1999999999999993,0.29999999999999716,-0.3000000000000007,0.5,-0.40000000000000036c-7.105427357601002e-15,-0.09999999999999787,0.19999999999999574,-0.1999999999999975,0.4999999999999929,-0.1999999999999975s0.6000000000000014,-0.09999999999999964,0.8999999999999986,-0.09999999999999964c0.10000000000000142,0,0.20000000000000284,0,0.20000000000000284,0c0.10000000000000142,0,0.20000000000000284,0,0.20000000000000284,0c0,-0.20000000000000018,0,-0.2999999999999998,0,-0.5c0,-0.2999999999999998,-0.10000000000000142,-0.5999999999999996,-0.20000000000000284,-0.7000000000000002c-0.10000000000000142,-0.09999999999999964,-0.3999999999999986,-0.20000000000000018,-0.7000000000000028,-0.20000000000000018c-0.10000000000000142,0,-0.20000000000000284,0,-0.29999999999999716,0c-0.10000000000000142,0,-0.20000000000000284,0,-0.3999999999999986,0.09999999999999964s-0.10000000000000142,0.09999999999999964,-0.20000000000000284,0.20000000000000018c-0.10000000000000142,0,-0.20000000000000284,0.09999999999999964,-0.29999999999999716,0.09999999999999964l-0.20000000000000284,-0.5999999999999996ZM52.7,9.8c0.20000000000000284,0,0.29999999999999716,0,0.5,-0.09999999999999964c0.10000000000000142,0,0.20000000000000284,-0.09999999999999964,0.29999999999999716,-0.1999999999999993s0.20000000000000284,-0.09999999999999964,0.20000000000000284,-0.1999999999999993s0.10000000000000142,-0.1999999999999993,0.10000000000000142,-0.1999999999999993v-0.7000000000000028c-0.10000000000000142,0,-0.20000000000000284,0,-0.29999999999999716,0s-0.20000000000000284,0,-0.29999999999999716,0c-0.20000000000000284,0,-0.3999999999999986,0,-0.5,0c-0.20000000000000284,0,-0.29999999999999716,0.09999999999999964,-0.5,0.09999999999999964c-0.10000000000000142,0.09999999999999964,-0.20000000000000284,0.09999999999999964,-0.29999999999999716,0.1999999999999993c0.09999999999998721,0.20000000000000107,-1.4210854715202004e-14,0.3000000000000007,-1.4210854715202004e-14,0.40000000000000036c0,0.1999999999999993,0.10000000000000142,0.40000000000000036,0.20000000000000284,0.5c0.19999999999999574,0.20000000000000107,0.3999999999999986,0.20000000000000107,0.6000000000000014,0.20000000000000107Z" style="fill:white;"/>
		<path class="st1" d="M56.4,6.7c0.20000000000000284,-0.2999999999999998,0.3999999999999986,-0.5,0.7000000000000028,-0.6000000000000005c0.19999999999999574,-0.09999999999999964,0.5,-0.1999999999999993,0.8999999999999986,-0.1999999999999993c0.6000000000000014,0,1,0.20000000000000018,1.2999999999999972,0.5s0.3999999999999986,0.9000000000000004,0.3999999999999986,1.5999999999999996c0,0.8000000000000007,-0.20000000000000284,1.4000000000000004,-0.5,1.8000000000000007c-0.29999999999999716,0.40000000000000036,-0.7999999999999972,0.5999999999999996,-1.3999999999999986,0.5999999999999996c-0.7000000000000028,0,-1.2000000000000028,-0.1999999999999993,-1.5,-0.6999999999999993c-0.29999999999999716,-0.5,-0.5,-1.1999999999999993,-0.5,-2.2c0,-0.5,0,-1,0.10000000000000142,-1.2999999999999998c0,-0.20000000000000107,0,-0.5000000000000009,0.10000000000000142,-0.8000000000000007c0.10000000000000142,-0.2999999999999998,0.20000000000000284,-0.5,0.3999999999999986,-0.5999999999999996c0.10000000000000142,-0.09999999999999964,0.29999999999999716,-0.2999999999999998,0.5,-0.40000000000000036c0.20000000000000284,-0.09999999999999964,0.3999999999999986,-0.09999999999999964,0.6000000000000014,-0.20000000000000018c0.20000000000000284,0,0.3999999999999986,-0.09999999999999964,0.7000000000000028,-0.09999999999999964c0.29999999999999716,0,0.6000000000000014,-0.09999999999999964,0.7000000000000028,-0.09999999999999964c0.20000000000000284,0,0.29999999999999716,-0.09999999999999964,0.3999999999999986,-0.20000000000000018l0.10000000000000142,0.5999999999999996c-0.10000000000000142,0.09999999999999964,-0.10000000000000142,0.09999999999999964,-0.20000000000000284,0.09999999999999964c-0.10000000000000142,0,-0.20000000000000284,0.09999999999999964,-0.29999999999999716,0.09999999999999964c-0.10000000000000142,0,-0.20000000000000284,0,-0.3999999999999986,0.09999999999999964s-0.29999999999999716,0,-0.5,0c-0.29999999999999716,0,-0.5,0,-0.7000000000000028,0.09999999999999964c-0.20000000000000284,0,-0.3999999999999986,0.10000000000000053,-0.5,0.2999999999999998c-0.10000000000000142,0.09999999999999964,-0.29999999999999716,0.3000000000000007,-0.29999999999999716,0.5c-7.105427357601002e-15,0.40000000000000124,-0.10000000000000853,0.7000000000000011,-0.10000000000000853,1.1000000000000014l0,0ZM56.5,8.2c0,0.1999999999999993,0,0.40000000000000036,0.10000000000000142,0.6999999999999993c0,0.1999999999999993,0.10000000000000142,0.40000000000000036,0.20000000000000284,0.5999999999999996c0.10000000000000142,0.1999999999999993,0.20000000000000284,0.3000000000000007,0.3999999999999986,0.40000000000000036c0.20000000000000284,0.09999999999999964,0.29999999999999716,0.09999999999999964,0.5,0.09999999999999964c0.3999999999999986,0,0.7000000000000028,-0.09999999999999964,0.8999999999999986,-0.40000000000000036c0.20000000000000284,-0.3000000000000007,0.29999999999999716,-0.6999999999999993,0.29999999999999716,-1.3000000000000007c0,-0.1999999999999993,0,-0.40000000000000036,-0.10000000000000142,-0.5999999999999996c0,-0.20000000000000018,-0.10000000000000142,-0.40000000000000036,-0.20000000000000284,-0.5s-0.20000000000000284,-0.20000000000000018,-0.29999999999999716,-0.29999999999999893c-0.10000000000000142,-0.10000000000000053,-0.29999999999999716,-0.10000000000000053,-0.5,-0.10000000000000053c-0.5,0,-0.7999999999999972,0.10000000000000053,-1,0.40000000000000036c-0.19999999999999574,1.7763568394002505e-15,-0.29999999999999716,0.40000000000000124,-0.29999999999999716,1.0000000000000009Z" style="fill:white;"/>
		<path class="st1" d="M60.6,8.2c0,-0.7999999999999998,0.20000000000000284,-1.2999999999999998,0.5,-1.7999999999999998c0.29999999999999716,-0.40000000000000036,0.7999999999999972,-0.6000000000000005,1.5,-0.6000000000000005c0.29999999999999716,0,0.6000000000000014,0.10000000000000053,0.8999999999999986,0.20000000000000018s0.5,0.2999999999999998,0.5999999999999943,0.5c0.20000000000000284,0.20000000000000018,0.29999999999999716,0.5,0.4000000000000057,0.7000000000000002c0.09999999999999432,0.2999999999999998,0.09999999999999432,0.5999999999999996,0.09999999999999432,1c0,0.8000000000000007,-0.20000000000000284,1.3000000000000007,-0.5,1.8000000000000007s-0.7999999999999972,0.5999999999999996,-1.5,0.5999999999999996c-0.29999999999999716,0,-0.6000000000000014,-0.09999999999999964,-0.8999999999999986,-0.1999999999999993c-0.20000000000000284,-0.09999999999999964,-0.5,-0.3000000000000007,-0.6000000000000014,-0.5s-0.29999999999999716,-0.5,-0.3999999999999986,-0.6999999999999993c-0.09999999999999432,-0.40000000000000036,-0.09999999999999432,-0.7000000000000011,-0.09999999999999432,-1.0000000000000018ZM61.3,8.2c0,0.1999999999999993,0,0.40000000000000036,0.10000000000000142,0.6999999999999993s0.10000000000000142,0.40000000000000036,0.20000000000000284,0.5c0.10000000000000142,0.1999999999999993,0.20000000000000284,0.3000000000000007,0.3999999999999986,0.40000000000000036c0.20000000000000284,0.09999999999999964,0.29999999999999716,0.09999999999999964,0.6000000000000014,0.09999999999999964c0.7999999999999972,0,1.2000000000000028,-0.5999999999999996,1.2000000000000028,-1.6999999999999993c0,-0.20000000000000018,0,-0.5,-0.10000000000000142,-0.7000000000000002s-0.10000000000000142,-0.40000000000000036,-0.20000000000000284,-0.5c-0.10000000000000142,-0.20000000000000018,-0.20000000000000284,-0.2999999999999998,-0.3999999999999986,-0.40000000000000036c-0.20000000000000284,-0.09999999999999964,-0.29999999999999716,-0.09999999999999964,-0.6000000000000014,-0.09999999999999964c-0.7999999999999972,-0.09999999999999876,-1.2000000000000028,0.5000000000000009,-1.2000000000000028,1.7000000000000002Z" style="fill:white;"/>
		<path class="st1" d="M68.4,6.5h-1.4000000000000057v3.9000000000000004h-0.7000000000000028v-3.9000000000000004h-1.4000000000000057v-0.5999999999999996h3.5v0.5999999999999996Z" style="fill:white;"/>
		<path class="st1" d="M69,6.2c0.20000000000000284,-0.09999999999999964,0.5,-0.20000000000000018,0.7999999999999972,-0.2999999999999998c0.29999999999999716,-0.09999999999999964,0.5999999999999943,-0.09999999999999964,0.9000000000000057,-0.09999999999999964c0.29999999999999716,0,0.5999999999999943,0,0.7999999999999972,0.09999999999999964s0.29999999999999716,0.20000000000000018,0.4000000000000057,0.2999999999999998c0.09999999999999432,0.09999999999999964,0.20000000000000284,0.2999999999999998,0.20000000000000284,0.40000000000000036c0,0.20000000000000018,0,0.2999999999999998,0,0.5c0,0.40000000000000036,0,0.7000000000000002,0,1.1000000000000005c0,0.3000000000000007,0,0.6999999999999993,0,1c0,0.1999999999999993,0,0.40000000000000036,0,0.5999999999999996c0,0.1999999999999993,0.09999999999999432,0.40000000000000036,0.09999999999999432,0.5h-0.5l-0.20000000000000284,-0.5999999999999996h0c-0.09999999999999432,0.09999999999999964,-0.09999999999999432,0.1999999999999993,-0.20000000000000284,0.1999999999999993c-0.09999999999999432,0.09999999999999964,-0.20000000000000284,0.1999999999999993,-0.29999999999999716,0.1999999999999993c-0.09999999999999432,0.09999999999999964,-0.20000000000000284,0.09999999999999964,-0.4000000000000057,0.1999999999999993c-0.09999999999999432,0,-0.29999999999999716,0.09999999999999964,-0.5,0.09999999999999964c-0.20000000000000284,0,-0.4000000000000057,0,-0.5,-0.09999999999999964s-0.29999999999999716,-0.09999999999999964,-0.4000000000000057,-0.3000000000000007s-0.20000000000000284,-0.1999999999999993,-0.29999999999999716,-0.40000000000000036c-0.09999999999999432,-0.1999999999999993,-0.09999999999999432,-0.3000000000000007,-0.09999999999999432,-0.5c0,-0.3000000000000007,0.09999999999999432,-0.5,0.20000000000000284,-0.6999999999999993c0.09999999999999432,-0.1999999999999993,0.29999999999999716,-0.3000000000000007,0.5,-0.40000000000000036c0.20000000000000284,-0.09999999999999876,0.4000000000000057,-0.20000000000000018,0.7000000000000028,-0.20000000000000018s0.5999999999999943,-0.09999999999999964,0.9000000000000057,-0.09999999999999964c0.09999999999999432,0,0.20000000000000284,0,0.20000000000000284,0c0.09999999999999432,0,0.20000000000000284,0,0.20000000000000284,0c0,-0.20000000000000018,0,-0.29999999999999893,0,-0.5c0,-0.29999999999999893,-0.09999999999999432,-0.6000000000000005,-0.20000000000000284,-0.7000000000000002c-0.09999999999999432,-0.09999999999999876,-0.4000000000000057,-0.20000000000000018,-0.7000000000000028,-0.20000000000000018c-0.09999999999999432,0,-0.20000000000000284,0,-0.29999999999999716,0c-0.09999999999999432,0,-0.20000000000000284,0,-0.4000000000000057,0.10000000000000053s-0.20000000000000284,0.09999999999999876,-0.4000000000000057,0.09999999999999876c-0.09999999999999432,0,-0.20000000000000284,0.09999999999999964,-0.29999999999999716,0.09999999999999964l-0.20000000000000284,-0.3999999999999968ZM70.3,9.8c0.20000000000000284,0,0.29999999999999716,0,0.5,-0.09999999999999964c0.09999999999999432,0,0.20000000000000284,-0.09999999999999964,0.29999999999999716,-0.1999999999999993s0.20000000000000284,-0.09999999999999964,0.20000000000000284,-0.1999999999999993s0.09999999999999432,-0.1999999999999993,0.09999999999999432,-0.1999999999999993v-0.7000000000000028c-0.09999999999999432,0,-0.20000000000000284,0,-0.29999999999999716,0s-0.20000000000000284,0,-0.29999999999999716,0c-0.20000000000000284,0,-0.4000000000000057,0,-0.5,0c-0.20000000000000284,0,-0.29999999999999716,0.09999999999999964,-0.5,0.09999999999999964c-0.09999999999999432,0.09999999999999964,-0.20000000000000284,0.09999999999999964,-0.29999999999999716,0.1999999999999993c-0.09999999999999432,0.09999999999999964,-0.09999999999999432,0.1999999999999993,-0.09999999999999432,0.40000000000000036c0,0.1999999999999993,0.09999999999999432,0.40000000000000036,0.20000000000000284,0.5c0.29999999999999716,0.20000000000000107,0.3999999999999915,0.20000000000000107,0.6999999999999886,0.20000000000000107Z" style="fill:white;"/>
		<path class="st1" d="M76.3,8.4h-2v2h-0.7000000000000028v-4.5h0.7000000000000028v1.9000000000000004h2v-1.9000000000000004h0.7000000000000028v4.5h-0.7000000000000028v-2Z" style="fill:white;"/>
		<path class="st1" d="M78.1,8.2c0,-0.7999999999999998,0.20000000000000284,-1.2999999999999998,0.5,-1.7999999999999998c0.4000000000000057,-0.39999999999999947,0.9000000000000057,-0.5999999999999996,1.5,-0.5999999999999996c0.29999999999999716,0,0.5999999999999943,0.09999999999999964,0.9000000000000057,0.20000000000000018s0.5,0.2999999999999998,0.5999999999999943,0.5c0.20000000000000284,0.20000000000000018,0.29999999999999716,0.5,0.4000000000000057,0.7000000000000002c0.09999999999999432,0.2999999999999998,0.09999999999999432,0.6000000000000005,0.09999999999999432,0.9999999999999991c0,0.8000000000000007,-0.20000000000000284,1.3000000000000007,-0.5,1.8000000000000007s-0.7999999999999972,0.5999999999999996,-1.5,0.5999999999999996c-0.29999999999999716,0,-0.5999999999999943,-0.09999999999999964,-0.9000000000000057,-0.1999999999999993c-0.20000000000000284,-0.09999999999999964,-0.5,-0.3000000000000007,-0.5999999999999943,-0.5s-0.29999999999999716,-0.5,-0.4000000000000057,-0.6999999999999993c1.4210854715202004e-14,-0.40000000000000036,-0.09999999999999432,-0.7000000000000011,-0.09999999999999432,-1.0000000000000018ZM78.9,8.2c0,0.1999999999999993,0,0.40000000000000036,0.09999999999999432,0.6999999999999993s0.09999999999999432,0.40000000000000036,0.20000000000000284,0.5c0.09999999999999432,0.1999999999999993,0.20000000000000284,0.3000000000000007,0.4000000000000057,0.40000000000000036c0.20000000000000284,0.09999999999999964,0.29999999999999716,0.09999999999999964,0.5999999999999943,0.09999999999999964c0.7999999999999972,0,1.2000000000000028,-0.5999999999999996,1.2000000000000028,-1.6999999999999993c0,-0.20000000000000018,0,-0.5,-0.09999999999999432,-0.7000000000000002s-0.09999999999999432,-0.40000000000000036,-0.20000000000000284,-0.5c-0.09999999999999432,-0.20000000000000018,-0.20000000000000284,-0.2999999999999998,-0.4000000000000057,-0.40000000000000036c-0.20000000000000284,-0.09999999999999964,-0.29999999999999716,-0.09999999999999964,-0.5999999999999943,-0.09999999999999964c-0.8000000000000114,-0.09999999999999876,-1.2000000000000028,0.5000000000000009,-1.2000000000000028,1.7000000000000002Z" style="fill:white;"/>
	</g>
	<path class="st1" fill="white" d="M24.3,20.3c0,1.6,0.1,3.1,0.3,4.3h-2.9l-0.3-2.3h-0.1c-1,1.4-2.9,2.7-5.5,2.7c-3.6,0-5.5-2.6-5.5-5.1   c0-4.3,3.8-6.7,10.8-6.7v-0.4c0-1.4-0.4-4.1-4.1-4.1c-1.7,0-3.4,0.5-4.7,1.3l-0.7-2.2C13,7,15.2,6.4,17.5,6.4   c5.5,0,6.8,3.7,6.8,7.3V20.3z M21.1,15.5c-3.6-0.1-7.6,0.6-7.6,4c0,2.1,1.4,3.1,3,3.1c2.4,0,3.9-1.5,4.4-3c0.1-0.4,0.1-0.7,0.1-1   V15.5z"/>
	<g>
		<path class="st1" fill="white" d="M3.1,26.1l6.4-23h2.2l-6.4,23H3.1z"/>
	</g>
</g>
</svg>