<svg width="13" height="13" fill="none" xmlns="http://www.w3.org/2000/svg">
  <path d="M12.7886 9.81633L9.93496 6.95102c-.21138-.21224-.63415-.21224-.95122 0l-1.1626 1.16735c-.31708-.21225-.63415-.42449-.84553-.63674l-.95122-.63673c-.21138-.21225-.42276-.53061-.63415-.84898-.21138-.21225-.42276-.53061-.63414-.84898l1.1626-1.37959c.10569-.10613.21138-.31837.21138-.42449 0-.21225-.10569-.31837-.21138-.42449L3.17073.15918c-.21138-.21224-.63414-.21224-.95122 0L.42276 1.85714c-.10569.31837-.31707.53061-.31707.84898C0 2.91837 0 3.23673 0 3.44898c0 .42449.1057.84898.21138 1.37959l.63415 1.59184c.31707.53061.63414 1.06122 1.05691 1.59183.42276.53062.84553 1.06123 1.37398 1.59184.52846.53062 1.05691.95512 1.58537 1.37962.52845.4245 1.05691.7428 1.58536 1.0612.52846.3184 1.05691.5306 1.58537.7429C8.56098 13 9.08943 13 9.51219 13c.21139 0 .52851 0 .84551-.1061.3171-.1061.5285-.2123.6342-.4245l1.7967-1.8041c.1057-.1061.2114-.3184.2114-.4245 0-.1061-.1057-.31835-.2114-.42447zm-9.3008-5.2c-.10569 0-.10569.21224-.10569.31836 0 .10613 0 .31837.10569.42449.21139.53062.52846.95511.84553 1.3796.31708.42449.52846.74285.84553 1.06122.31707.31837.63415.63673 1.05691.9551.31708.21225.73984.53061 1.26829.74286.1057.10612.31708.10612.42277 0 .10569 0 .21138-.10612.31707-.10612l1.1626-1.06123 1.9024 1.91019-1.2683 1.2735c0 .1061-.10564.1061-.21133.1061-.31708.1061-.73984 0-1.26829-.1061-.42277-.1061-.84553-.3184-1.2683-.5306-.52845-.2123-.95122-.5306-1.47967-.9551-.52846-.3184-.95122-.74289-1.47968-1.2735-.42276-.53061-.84553-1.06122-1.26829-1.48571-.31707-.53061-.73984-.9551-.95122-1.48572L1.47967 4.5102c-.10569-.42449-.21138-.74285-.21138-1.06122v-.53061l1.2683-1.37959 1.79674 1.80408-.84553 1.27347z" fill="#fff"/>
</svg>
